{"glyphs":{"0":{"ha":439,"x_min":28,"x_max":411,"o":"m 211 21 l 224 21 l 232 21 q 248 22 243 21 q 267 31 253 24 q 328 92 303 50 q 370 186 354 135 q 395 289 386 238 q 407 376 404 340 q 411 480 411 418 q 406 590 411 542 q 395 663 403 622 q 374 744 388 704 q 339 817 360 783 q 286 869 318 851 q 254 883 267 879 q 225 889 242 886 q 217 890 221 889 q 210 890 213 890 q 188 887 197 890 q 165 876 179 883 q 115 840 133 860 q 78 782 96 819 q 28 490 28 678 q 35 369 28 444 q 63 219 43 293 q 119 89 83 146 q 211 21 154 32 m 282 85 q 263 69 269 69 q 253 74 258 69 q 244 82 247 79 q 187 196 213 117 q 153 361 161 275 q 151 392 151 372 q 151 435 151 413 q 151 480 151 458 q 153 515 151 501 q 162 584 154 532 q 184 692 169 636 q 219 792 199 749 q 264 836 239 836 q 294 818 276 836 q 376 571 360 753 q 378 526 378 554 q 379 466 379 497 q 378 408 379 435 q 376 367 378 381 q 340 197 365 271 q 282 85 315 122 "},"1":{"ha":331,"x_min":28,"x_max":308,"o":"m 111 17 q 122 15 113 15 q 151 17 125 17 q 211 18 176 17 l 293 19 l 297 24 q 299 46 308 35 q 281 51 296 50 l 267 53 l 263 90 q 260 149 261 110 q 258 256 260 189 q 258 311 258 282 q 256 368 257 340 q 253 420 254 396 q 251 461 253 444 q 249 539 250 493 q 246 617 247 585 q 244 689 244 649 q 242 754 243 729 q 240 803 240 781 q 239 832 239 825 q 235 862 239 849 q 225 878 232 875 q 210 879 222 879 q 165 879 199 879 q 126 879 143 879 q 106 878 108 879 q 96 872 101 876 q 82 854 90 867 q 69 838 78 850 q 51 812 61 825 q 35 788 42 799 q 28 772 28 776 q 43 757 28 757 q 53 760 50 757 q 60 769 54 761 q 73 788 65 778 q 88 809 81 799 q 99 825 94 819 l 103 833 l 104 810 q 106 776 106 800 q 108 729 107 753 q 111 665 110 706 q 115 592 113 625 q 120 506 118 544 q 124 425 122 468 q 126 326 125 382 q 129 185 128 269 q 131 117 131 150 q 132 74 132 85 l 133 46 l 122 44 q 104 39 110 44 q 100 31 100 31 q 111 17 100 19 "},"2":{"ha":374,"x_min":26,"x_max":349,"o":"m 128 13 l 160 13 l 243 13 q 306 15 296 14 q 319 25 317 17 q 314 44 325 38 q 303 48 310 47 q 268 49 296 49 l 229 50 l 231 57 q 239 97 232 65 q 256 167 246 128 q 275 246 265 207 q 290 306 285 285 q 319 426 307 371 q 338 533 331 481 q 346 665 349 604 q 328 769 343 726 q 283 835 314 810 q 210 861 253 861 q 134 835 169 861 q 79 776 99 808 q 72 767 78 772 q 69 763 71 764 q 58 769 68 763 q 42 775 51 775 q 29 761 26 775 q 42 745 31 757 q 69 722 54 733 q 99 701 85 710 q 118 692 113 692 q 126 694 121 692 q 131 714 136 701 q 124 720 129 715 q 111 729 118 725 q 99 739 104 735 q 94 744 94 743 q 100 755 94 747 q 114 772 106 763 q 131 790 122 782 q 144 800 139 797 q 183 808 161 808 q 224 731 211 804 q 227 703 226 714 q 226 661 228 692 q 222 597 225 628 q 210 522 219 567 q 185 410 201 478 q 142 232 169 342 q 121 147 129 181 q 108 94 113 114 q 101 65 103 75 q 100 50 100 56 q 100 29 99 35 q 108 18 101 24 q 128 13 114 14 "},"3":{"ha":417,"x_min":25,"x_max":404,"o":"m 156 13 q 174 11 160 11 q 198 13 185 11 q 221 17 211 14 q 356 140 301 35 q 381 342 404 233 q 317 463 368 411 q 273 494 294 485 q 208 507 251 503 l 196 508 l 222 535 q 267 588 250 563 q 296 644 285 614 q 310 706 307 672 q 307 763 313 739 q 264 832 299 807 q 186 857 229 857 q 151 856 165 857 q 118 844 138 854 q 113 842 115 843 q 107 839 110 840 l 103 836 q 97 844 101 836 q 81 857 92 857 q 68 844 68 857 q 73 829 68 840 q 84 805 78 818 q 97 781 90 792 q 106 767 103 769 q 117 761 114 761 q 126 767 121 761 q 131 777 132 772 q 124 793 131 782 l 117 807 l 122 811 q 141 822 129 818 q 164 825 153 825 q 213 803 194 825 q 238 753 231 781 q 241 710 242 738 q 236 663 240 682 q 210 585 226 619 q 158 525 193 551 q 135 507 140 513 q 131 493 131 501 q 138 481 132 485 q 161 475 143 478 q 228 431 210 467 q 256 350 247 394 q 260 300 258 332 q 258 249 261 268 q 247 199 257 231 q 223 138 238 168 q 188 86 208 108 q 144 64 168 64 q 119 75 128 64 q 110 90 115 81 q 104 103 104 100 q 117 110 104 104 q 126 113 122 111 q 133 117 131 115 q 137 133 140 124 q 122 143 133 143 q 104 138 118 143 q 75 126 90 133 q 47 114 60 119 q 32 106 33 108 q 33 88 25 96 q 43 82 39 82 q 60 88 46 82 q 68 90 68 90 l 72 92 q 103 40 85 61 q 156 13 121 19 "},"4":{"ha":399,"x_min":26,"x_max":372,"o":"m 229 18 q 238 14 233 14 q 240 15 239 14 q 243 15 240 15 q 285 18 254 17 q 333 19 317 19 q 368 29 363 21 q 367 45 372 38 q 353 53 363 53 l 346 53 l 346 69 q 345 122 346 88 q 344 193 344 156 q 342 267 343 231 q 340 325 340 303 q 337 483 338 368 q 336 779 336 597 l 336 828 l 346 829 q 365 840 361 831 q 360 858 371 850 q 349 861 357 861 q 315 861 340 861 q 278 860 299 861 q 244 860 257 860 q 210 855 217 857 q 203 843 204 853 q 218 828 203 828 l 224 828 l 222 800 q 222 749 222 786 q 221 667 221 711 q 222 579 221 622 q 222 513 222 536 l 224 461 l 215 460 q 193 458 211 460 q 154 456 175 457 q 114 453 133 454 q 85 453 94 453 q 66 453 69 453 q 63 457 63 454 q 67 478 63 461 q 89 553 72 496 q 106 611 99 586 q 119 658 113 636 q 131 701 125 681 q 142 747 136 722 q 153 794 149 774 q 158 819 157 815 q 150 850 167 850 q 141 849 144 850 q 134 838 138 847 q 125 810 131 829 q 111 757 119 792 q 82 651 96 700 q 51 547 68 603 q 36 492 42 513 q 28 459 31 471 q 28 441 26 447 q 33 431 29 435 q 51 422 40 424 q 89 419 61 419 q 119 420 99 419 q 163 422 140 421 q 202 425 185 424 q 222 426 219 426 q 226 351 225 426 q 228 255 228 301 q 231 171 229 208 q 233 106 232 133 q 233 69 233 79 l 235 44 l 229 40 q 229 18 217 28 "},"5":{"ha":444,"x_min":28,"x_max":417,"o":"m 165 15 q 178 14 171 14 q 193 14 186 14 q 278 35 240 14 q 342 91 315 57 q 387 167 369 125 q 411 251 404 210 q 415 281 414 264 q 416 318 415 299 q 416 355 417 338 q 414 385 415 372 q 403 433 410 413 q 386 472 397 453 q 358 509 375 490 q 314 550 340 528 q 258 590 288 572 q 178 635 229 608 q 160 644 168 640 q 151 651 153 649 q 147 682 150 653 q 147 721 147 693 q 149 778 147 749 q 151 829 150 807 q 153 853 151 851 q 178 854 154 854 q 225 854 201 854 l 239 854 l 238 835 q 237 820 236 826 q 238 811 238 814 q 256 800 242 797 q 266 811 264 803 q 269 857 268 819 l 272 904 l 268 910 q 257 914 263 914 q 242 897 244 914 l 242 889 l 194 889 q 161 888 186 889 q 109 884 136 886 q 59 879 82 882 q 33 874 36 876 q 31 859 31 871 q 29 799 31 847 q 28 730 28 768 q 28 667 28 692 q 28 615 28 626 q 31 600 28 604 q 61 581 38 588 q 222 496 157 553 q 303 333 286 439 q 306 278 306 314 q 303 222 306 242 q 294 185 300 206 q 281 153 288 164 q 258 122 272 139 q 227 92 244 106 q 191 70 210 79 q 154 61 172 61 q 146 63 149 61 q 112 95 124 67 q 99 143 100 124 q 95 160 96 156 q 92 168 94 165 q 81 174 88 174 q 69 168 75 174 q 65 160 67 164 q 65 144 64 157 q 93 63 65 100 q 165 15 121 26 "},"6":{"ha":400,"x_min":29,"x_max":374,"o":"m 201 13 q 215 11 207 11 q 231 11 222 11 q 294 26 268 11 q 339 76 321 40 q 370 194 367 133 q 350 286 374 254 q 271 326 321 326 q 228 318 256 326 q 189 299 200 310 q 179 294 179 294 q 175 324 178 296 q 169 379 172 351 q 168 421 168 396 q 169 473 168 446 q 171 526 169 500 q 174 571 172 553 q 185 667 178 621 q 200 735 193 713 q 228 793 211 764 q 260 838 244 822 l 271 849 l 285 849 l 294 849 q 306 845 306 849 q 307 822 307 842 q 306 800 306 804 q 310 792 307 796 q 321 786 315 786 q 333 792 328 786 q 337 800 336 794 q 338 829 338 806 q 340 858 339 843 q 342 879 340 872 q 342 901 344 896 q 328 913 339 913 q 318 910 321 913 q 313 892 314 903 l 311 879 l 275 879 q 231 876 246 879 q 200 867 217 874 q 124 799 154 846 q 73 694 93 751 q 43 579 53 638 q 31 476 33 521 q 29 445 29 464 q 29 406 29 426 q 30 366 29 385 q 32 335 31 347 q 46 245 36 296 q 75 147 56 194 q 125 61 94 99 q 201 13 156 24 m 285 71 q 278 69 281 69 q 272 68 275 68 q 268 69 269 68 q 264 69 267 69 q 236 83 244 74 q 189 231 207 131 q 186 243 188 238 q 185 251 185 249 q 191 260 183 254 q 210 273 199 267 q 233 285 221 279 q 254 292 246 290 q 269 293 260 293 q 308 281 292 293 q 332 249 325 269 q 336 183 340 222 q 317 108 332 144 q 285 71 303 76 "},"7":{"ha":378,"x_min":28,"x_max":350,"o":"m 29 824 q 29 785 28 796 q 35 771 31 775 q 46 767 39 767 q 57 771 53 767 q 60 778 60 774 q 60 801 61 783 q 60 823 60 819 q 63 828 60 826 q 92 833 68 829 q 147 840 115 836 q 178 844 164 843 q 194 846 192 844 l 199 846 l 194 828 q 150 517 175 746 q 123 297 136 408 q 103 76 110 186 l 101 50 l 85 50 q 63 46 67 50 q 63 25 50 36 l 68 19 l 136 18 q 187 17 164 18 q 213 17 210 17 q 225 16 217 17 q 240 15 233 15 q 265 17 258 15 q 275 26 272 19 q 272 43 279 36 q 251 50 265 50 l 244 50 l 244 58 q 247 74 246 61 q 249 100 247 86 q 271 333 256 218 q 306 565 286 449 q 315 627 308 586 q 326 704 321 668 q 335 774 331 740 q 343 821 340 808 q 349 865 350 853 q 338 883 349 876 q 328 887 333 886 q 306 888 324 888 q 256 885 290 888 q 185 878 222 882 q 113 868 147 874 q 65 858 79 863 q 62 860 63 858 q 63 871 61 861 q 58 888 63 885 q 49 892 54 892 q 38 888 42 892 q 33 870 35 885 q 29 824 31 856 "},"8":{"ha":456,"x_min":18,"x_max":428,"o":"m 140 13 q 168 10 157 10 q 266 33 222 10 q 342 95 310 57 q 394 181 374 133 q 425 278 415 229 q 427 331 428 297 q 422 385 426 365 q 385 477 411 433 q 313 571 360 521 l 290 593 l 306 617 q 335 668 321 639 q 357 721 350 697 q 375 807 374 767 q 364 875 376 847 q 329 917 353 901 q 276 935 306 932 q 169 894 214 935 q 110 796 125 854 q 101 736 103 769 q 107 675 100 703 q 168 532 122 604 q 178 517 178 519 q 90 376 131 449 q 36 221 50 304 q 44 78 18 131 q 63 52 51 65 q 86 32 75 39 q 113 20 96 25 q 140 13 129 15 m 175 67 q 142 61 163 61 q 89 79 100 61 q 78 136 78 97 q 142 347 82 231 q 158 378 147 358 q 180 419 168 399 q 200 454 192 439 q 210 471 208 469 q 217 465 211 472 q 233 447 224 458 q 251 422 242 435 q 268 397 261 408 q 306 325 297 356 q 309 307 308 315 q 310 278 310 299 q 309 248 310 256 q 304 228 308 240 q 257 133 289 179 q 175 67 225 86 m 265 638 q 257 624 258 624 q 248 631 256 624 q 231 648 240 638 q 213 669 222 658 q 197 685 203 679 q 153 756 161 724 q 149 781 150 765 q 151 807 149 796 q 177 853 157 831 q 221 888 197 876 q 238 895 232 894 q 254 897 243 896 q 285 893 274 897 q 303 869 296 889 q 313 819 311 850 q 310 761 315 788 q 292 699 303 733 q 265 638 281 665 "},"9":{"ha":400,"x_min":28,"x_max":371,"o":"m 63 -12 q 72 -15 68 -15 q 83 -8 81 -15 q 88 6 86 -1 l 89 18 l 125 18 q 168 21 154 18 q 200 31 182 24 q 276 99 246 51 q 327 203 307 146 q 357 318 347 260 q 369 421 367 376 q 371 453 371 433 q 371 492 371 472 q 370 531 371 513 q 368 563 369 550 q 354 649 364 600 q 326 745 344 699 q 280 830 308 792 q 210 882 251 868 q 190 886 201 885 q 168 888 179 888 q 89 858 117 888 q 44 783 61 829 q 29 684 28 731 q 50 611 31 638 q 129 571 79 571 q 172 578 149 571 q 211 599 196 586 q 218 603 217 601 l 221 604 q 225 574 222 603 q 229 518 228 546 q 231 477 231 501 q 231 426 231 453 q 229 372 231 399 q 226 326 228 346 q 204 185 219 257 q 140 60 189 113 l 129 49 l 115 49 l 110 49 q 93 52 94 49 q 93 75 92 56 q 94 97 94 93 q 90 106 93 101 q 78 111 86 111 q 67 107 71 111 q 63 98 64 104 q 61 68 63 92 q 60 40 61 54 q 58 18 60 25 q 63 -12 54 -7 m 147 607 q 129 606 142 606 q 92 617 108 606 q 68 649 75 629 q 63 682 64 661 q 64 719 61 703 q 69 750 65 732 q 81 786 74 768 q 100 817 89 804 q 128 829 111 829 q 150 825 138 829 q 174 795 163 819 q 194 742 185 771 q 210 685 204 713 q 215 647 215 658 q 208 638 215 644 q 190 626 201 632 q 167 614 179 619 q 147 607 156 608 "},"\u0000":{"ha":0,"x_min":0,"x_max":0,"o":""},"\r":{"ha":304,"x_min":0,"x_max":0,"o":""}," ":{"ha":304,"x_min":0,"x_max":0,"o":""},"A":{"ha":614,"x_min":28,"x_max":589,"o":"m 549 -37 q 563 -39 557 -39 q 571 -39 568 -39 q 581 -36 578 -39 q 585 -20 589 -29 q 569 -8 581 -11 q 560 3 563 -7 q 556 21 556 11 q 544 82 551 42 q 527 169 536 122 q 508 260 518 215 q 492 335 499 306 q 478 389 485 361 q 468 432 472 417 q 460 470 465 447 q 450 513 454 493 q 440 552 444 532 q 432 583 435 572 q 424 618 431 594 q 411 667 418 642 q 399 713 404 692 q 390 740 393 735 q 390 744 390 743 q 389 747 389 746 l 388 750 q 396 753 388 753 q 413 769 413 754 q 407 782 413 778 l 401 786 l 353 785 q 290 783 314 783 q 251 782 267 782 q 232 767 232 782 q 243 753 232 756 q 243 742 246 750 q 235 713 242 738 q 218 657 228 689 q 160 450 189 556 q 108 255 132 344 q 67 103 83 165 q 49 24 51 40 q 46 10 47 13 q 42 7 44 8 q 28 -7 28 4 q 40 -21 28 -21 l 74 -21 q 109 -22 85 -21 q 154 -22 133 -22 q 182 -24 172 -24 q 199 -24 192 -24 q 213 -21 210 -24 q 217 -1 221 -14 q 194 8 214 8 q 185 11 185 8 q 193 50 185 14 q 212 128 201 86 q 231 205 222 169 q 240 240 240 240 q 263 242 240 242 q 315 244 285 243 q 376 244 344 244 q 425 244 407 244 l 443 244 q 450 214 444 243 q 463 149 456 185 q 476 82 471 114 q 483 43 482 50 q 489 17 486 28 q 492 3 492 6 l 493 -3 l 476 -4 q 453 -19 453 -4 q 459 -30 453 -28 q 497 -35 465 -32 q 527 -37 513 -36 q 549 -37 542 -37 m 325 276 q 291 274 308 275 q 267 274 274 274 q 258 273 261 274 q 251 272 254 272 q 249 274 249 272 l 247 274 q 253 298 247 275 q 266 350 258 321 q 281 408 274 379 q 292 449 288 436 q 310 513 300 478 q 329 579 321 549 q 350 651 339 615 q 358 626 351 651 q 383 518 364 601 q 394 467 388 499 q 407 410 401 435 q 426 322 418 357 q 435 283 433 288 l 436 278 l 400 278 q 363 278 385 278 q 325 276 342 278 "},"B":{"ha":428,"x_min":28,"x_max":408,"o":"m 40 -54 q 137 -42 83 -54 q 237 -6 190 -31 q 315 56 283 18 q 347 147 347 94 q 334 208 347 179 q 297 261 321 238 q 270 284 286 272 q 249 296 254 296 q 247 299 244 296 q 257 307 249 303 q 346 397 307 338 q 381 461 372 435 q 397 536 390 488 q 371 686 408 615 q 304 767 349 728 q 214 821 260 807 q 201 826 204 825 q 153 833 193 829 q 137 835 149 835 q 111 835 125 835 q 28 806 28 835 q 42 792 28 792 l 50 792 l 50 390 l 50 -17 q 43 -24 51 -22 q 28 -42 28 -28 q 40 -54 28 -50 m 189 10 q 176 4 175 4 l 176 29 q 179 107 178 51 q 183 215 181 163 q 186 264 183 264 q 203 254 189 264 q 229 236 218 244 q 281 151 274 200 q 251 60 288 101 q 189 10 222 26 m 206 318 q 199 317 203 317 q 193 317 196 317 l 186 317 l 186 361 q 187 424 186 385 q 189 507 188 463 q 192 597 190 551 q 194 678 193 642 q 197 739 196 715 q 199 764 199 763 q 218 751 201 765 q 247 724 235 736 q 301 642 283 682 q 321 543 318 601 q 313 456 324 494 q 278 381 301 417 q 242 341 263 360 q 206 318 221 322 "},"C":{"ha":476,"x_min":26,"x_max":449,"o":"m 233 -110 q 250 -113 240 -112 q 269 -114 260 -114 q 296 -111 282 -114 q 349 -84 322 -104 q 394 -36 375 -64 q 399 -33 399 -28 q 403 -37 400 -35 q 410 -49 404 -40 q 424 -68 419 -64 q 435 -72 428 -72 q 449 -57 449 -72 q 438 -33 449 -51 q 414 5 428 -15 q 387 40 400 25 q 369 56 374 56 q 364 54 365 56 q 365 17 344 46 q 378 -4 378 -3 q 363 -22 378 -7 q 340 -40 347 -37 q 325 -44 332 -44 l 317 -44 q 306 -42 311 -43 q 297 -40 300 -42 q 271 -16 285 -33 q 246 22 257 1 q 225 64 235 43 q 211 97 215 85 q 179 243 188 164 q 176 402 171 322 q 201 559 182 482 q 253 700 221 636 q 283 749 271 735 q 308 763 294 763 q 324 760 315 763 q 332 751 331 756 q 331 724 333 747 q 330 693 328 700 q 339 683 332 686 l 344 683 q 357 689 353 683 q 360 708 358 692 q 365 744 363 724 q 370 783 368 764 q 372 811 372 803 q 356 832 372 832 q 340 807 342 831 q 338 792 338 793 q 329 796 336 792 q 310 806 322 800 q 286 814 297 811 q 273 817 281 817 q 256 817 265 817 q 240 817 247 817 q 225 814 232 817 q 165 781 193 807 q 118 728 136 754 q 54 576 76 665 q 29 388 32 486 q 44 194 26 290 q 99 24 61 99 q 233 -110 156 -87 "},"D":{"ha":535,"x_min":28,"x_max":507,"o":"m 40 -81 q 47 -82 42 -82 q 57 -81 50 -82 q 78 -75 64 -79 q 220 -15 151 -53 q 346 76 289 24 q 443 195 403 129 q 500 338 483 261 q 506 395 504 361 q 504 453 507 429 q 451 602 494 535 q 343 717 407 669 q 201 791 279 765 q 44 817 124 817 q 31 801 31 814 q 45 784 31 788 q 71 781 60 781 q 71 755 71 781 q 72 685 71 729 q 73 583 72 642 q 74 460 74 525 q 76 329 75 394 q 77 209 76 264 q 78 113 78 154 q 78 53 78 71 q 78 4 78 22 q 79 -23 79 -14 q 78 -35 79 -32 q 76 -37 78 -37 q 56 -44 72 -40 q 29 -67 28 -53 q 40 -81 31 -78 m 261 53 q 243 40 250 43 q 236 40 238 36 q 236 66 236 40 q 235 135 236 92 q 235 235 235 178 q 235 358 235 293 q 234 483 235 424 q 233 590 233 543 q 232 668 232 638 q 232 706 232 699 q 233 739 231 739 q 254 730 236 739 q 283 714 272 721 q 358 625 328 683 q 401 490 389 567 q 407 411 407 457 q 400 329 407 365 q 356 177 388 250 q 261 53 324 104 "},"E":{"ha":378,"x_min":25,"x_max":350,"o":"m 324 -93 q 332 -96 326 -96 q 340 -94 338 -96 q 348 -84 347 -92 q 346 -53 349 -76 q 344 -27 344 -42 q 342 -3 343 -12 q 341 13 342 6 q 340 21 340 19 q 326 31 338 31 q 324 30 325 31 q 322 29 324 29 q 313 22 315 28 q 311 0 311 17 q 310 -17 311 -14 q 306 -21 310 -19 q 290 -23 303 -22 q 261 -24 276 -24 q 231 -25 246 -25 q 211 -25 217 -25 q 210 6 211 -25 q 208 75 208 38 q 206 144 207 113 q 206 175 206 175 q 215 176 206 176 q 239 178 225 176 l 272 179 l 274 169 q 276 145 274 158 q 292 132 278 132 q 307 142 301 132 q 308 160 308 144 q 307 194 308 175 q 304 228 306 213 q 301 249 303 244 q 288 260 297 260 q 275 253 282 260 q 271 232 271 250 l 271 214 l 238 213 q 225 212 231 213 q 214 211 219 211 q 207 213 208 211 q 204 213 206 213 q 203 254 204 213 q 199 358 201 296 q 195 491 197 419 q 192 624 193 563 q 189 728 190 686 q 188 769 188 769 q 208 771 189 771 q 251 772 226 771 l 314 772 l 315 744 q 317 719 315 724 q 321 710 318 714 q 333 704 329 704 q 344 710 339 704 q 349 718 349 714 q 349 738 350 722 q 347 765 347 747 q 346 801 347 783 q 344 837 344 829 q 340 849 343 844 q 331 854 335 854 q 319 847 324 854 q 315 826 315 843 l 315 808 l 308 808 q 272 806 306 807 q 198 805 239 806 q 119 803 157 804 q 71 803 82 803 q 60 793 63 800 q 58 763 57 786 q 60 731 58 757 q 63 665 61 706 q 65 572 64 624 q 68 465 67 521 q 75 258 74 322 q 75 193 76 194 q 69 191 75 192 q 57 190 64 190 q 38 188 42 189 q 31 181 33 186 q 36 161 25 171 q 46 158 42 158 q 51 159 49 158 q 60 160 54 160 l 78 161 l 79 153 q 80 110 79 143 q 82 40 81 76 q 85 -27 83 3 q 89 -58 88 -57 q 94 -63 92 -61 q 113 -65 97 -65 q 144 -65 124 -65 q 201 -61 165 -64 q 273 -57 242 -58 q 307 -56 304 -56 q 315 -57 314 -56 q 315 -65 315 -58 q 324 -93 315 -87 "},"F":{"ha":368,"x_min":22,"x_max":340,"o":"m 60 -93 q 113 -92 86 -93 q 165 -90 139 -92 q 221 -87 201 -89 q 250 -85 240 -86 q 263 -81 260 -83 q 267 -75 265 -79 q 265 -57 272 -67 q 258 -52 261 -53 q 238 -51 254 -51 q 219 -51 222 -51 q 215 -47 215 -50 q 214 -14 215 -43 q 212 49 213 15 q 211 110 211 82 q 211 138 211 138 q 224 140 213 139 q 251 142 236 140 q 290 144 268 143 q 293 131 290 144 q 300 111 294 117 q 311 106 308 106 q 322 111 317 106 q 328 124 328 117 q 325 171 328 131 q 320 210 322 203 q 311 221 318 218 q 306 222 310 222 q 292 214 294 222 q 289 194 289 211 l 289 179 l 250 176 q 236 176 243 176 q 222 175 229 175 l 211 174 q 208 216 210 174 q 205 321 207 258 q 201 456 203 383 q 197 590 199 528 q 195 694 196 653 q 194 736 194 736 q 211 738 196 738 q 250 739 226 739 l 303 740 l 304 731 q 306 720 306 726 q 306 710 306 714 q 317 682 306 689 q 324 679 322 679 q 335 685 329 679 q 340 691 339 688 q 340 706 340 694 q 340 731 340 713 q 338 769 339 749 q 335 805 338 789 q 331 824 333 821 q 318 829 326 829 q 306 824 311 829 q 302 817 303 821 q 301 797 301 813 l 301 776 l 288 775 q 249 774 279 775 q 184 773 218 774 q 122 771 150 772 q 90 768 94 769 q 76 761 82 768 q 72 756 74 758 q 71 725 71 753 q 73 633 71 697 q 78 442 75 568 q 81 335 81 385 q 83 246 82 285 q 85 164 83 201 q 64 160 81 160 q 49 158 57 158 q 39 156 42 157 q 31 135 22 147 q 51 125 33 125 l 64 125 l 86 126 l 89 35 q 90 -31 90 -4 q 90 -58 90 -57 q 65 -62 82 -58 q 49 -76 49 -65 q 60 -93 49 -87 "},"G":{"ha":454,"x_min":28,"x_max":428,"o":"m 222 -72 q 243 -74 228 -74 l 254 -74 q 274 -72 267 -74 q 293 -67 282 -71 q 388 18 358 -39 q 425 144 418 75 q 423 215 428 172 q 407 290 418 257 q 367 369 392 335 q 314 411 342 403 q 301 418 301 415 q 314 443 304 421 q 324 482 331 474 q 313 488 319 488 q 296 478 301 488 q 279 449 290 469 q 256 406 268 428 q 235 366 244 383 q 226 347 226 349 q 232 337 226 342 q 243 332 238 332 q 254 337 250 332 q 269 361 258 342 l 281 382 l 290 381 q 328 362 311 381 q 358 318 346 343 q 377 267 369 293 q 388 225 385 240 q 390 204 389 218 q 390 176 390 190 q 390 147 390 161 q 388 125 389 133 q 326 -4 375 38 q 313 -15 319 -11 q 296 -19 307 -19 q 248 10 272 -15 q 208 67 224 35 q 185 149 197 94 q 167 267 174 204 q 164 303 165 281 q 163 349 163 325 q 163 398 163 374 q 164 442 163 422 q 174 542 167 500 q 196 624 182 583 q 209 658 199 633 q 233 707 219 682 q 263 751 247 732 q 292 771 279 771 q 307 763 297 771 q 323 746 314 758 q 332 731 332 733 q 322 717 332 726 q 310 681 300 690 q 319 676 314 676 q 336 685 331 676 q 356 705 344 693 q 377 728 367 717 q 394 749 388 740 q 403 760 401 758 q 403 774 407 767 q 390 782 399 782 q 378 776 385 782 q 368 767 371 769 q 356 756 360 756 q 319 797 339 779 q 268 818 299 814 q 246 819 261 819 q 138 769 188 819 q 60 629 88 718 q 38 529 44 576 q 29 410 31 482 q 34 269 28 338 q 56 144 40 201 q 76 72 64 107 q 106 8 88 38 q 153 -42 125 -21 q 222 -72 181 -62 "},"H":{"ha":542,"x_min":26,"x_max":517,"o":"m 221 -64 q 252 -67 239 -67 q 267 -68 265 -68 q 286 -50 286 -68 q 281 -40 286 -46 q 272 -34 276 -35 q 251 -32 268 -33 l 228 -29 l 229 64 q 229 100 229 83 q 231 129 229 117 q 231 156 231 143 q 260 158 231 156 q 326 162 290 160 q 391 165 361 164 q 421 167 421 167 q 422 146 421 165 q 422 99 422 126 l 424 31 l 407 29 q 385 22 390 28 q 383 4 376 14 l 389 -1 l 500 -4 l 506 1 q 506 24 517 13 q 499 28 503 26 q 481 29 496 29 q 460 31 460 29 q 459 52 460 32 q 457 100 458 72 l 456 168 l 476 169 q 493 172 486 171 q 503 174 500 172 q 513 183 511 176 q 508 197 514 190 q 502 202 506 201 q 481 203 499 203 l 457 203 l 458 428 q 459 659 458 588 q 463 733 460 731 q 469 734 464 733 q 482 736 475 735 q 507 753 507 738 q 486 768 507 768 q 462 767 478 768 q 428 763 446 765 q 398 760 411 761 q 383 757 385 758 q 378 751 381 756 q 375 743 375 746 q 379 735 375 743 l 383 729 l 431 732 l 429 713 q 426 665 428 690 q 424 603 425 639 q 423 518 424 567 q 422 401 422 469 q 422 324 422 360 q 422 260 422 288 q 420 217 421 233 q 419 201 419 201 q 392 199 419 200 q 329 196 365 197 q 266 192 293 193 q 236 190 239 190 l 231 189 l 232 368 q 232 447 232 406 q 233 529 232 489 q 234 605 233 569 q 235 664 235 640 l 236 781 l 258 781 q 278 781 274 781 q 285 785 282 782 q 290 801 292 792 q 276 814 288 811 q 201 814 239 814 q 126 811 164 814 q 88 806 100 808 q 71 800 76 804 q 65 783 61 793 q 81 774 69 774 l 86 774 q 94 775 94 776 q 95 731 94 775 q 97 622 96 688 q 99 480 99 557 q 101 338 100 403 q 101 228 101 272 q 101 183 101 183 l 92 182 q 82 182 88 182 q 69 181 76 182 q 42 178 49 179 q 33 175 36 178 q 31 154 26 165 q 50 147 35 147 q 60 147 54 147 q 72 149 65 147 l 97 149 l 101 149 q 103 123 103 149 q 103 61 103 97 l 104 -28 l 86 -28 q 57 -43 61 -29 q 58 -53 54 -47 q 72 -61 63 -61 q 86 -60 81 -61 q 111 -58 92 -58 q 161 -60 132 -58 q 221 -64 190 -61 "},"I":{"ha":283,"x_min":21,"x_max":256,"o":"m 196 -19 q 215 -22 207 -21 q 229 -22 224 -22 q 245 -20 240 -22 q 253 -14 250 -18 q 256 -6 256 -11 q 249 8 256 4 q 222 13 242 11 l 203 14 l 203 19 q 202 37 203 22 q 200 71 201 51 q 192 336 192 203 q 190 406 190 360 q 188 493 189 451 q 185 574 186 533 q 183 631 185 615 q 182 665 182 646 q 182 696 182 685 l 182 724 l 238 724 l 243 729 q 243 751 253 742 l 238 756 l 139 756 q 83 756 103 756 q 53 756 63 756 q 40 755 43 756 q 35 753 38 754 q 32 731 21 742 q 38 727 35 728 q 57 726 42 726 l 78 726 l 78 617 q 78 525 78 572 q 81 456 79 478 q 85 322 83 386 q 89 171 88 258 q 92 84 90 124 q 94 36 93 44 q 96 21 94 25 q 96 14 96 17 q 81 11 94 14 q 61 7 69 11 q 54 -5 54 4 q 61 -17 54 -14 q 81 -17 63 -17 q 124 -19 100 -18 q 169 -19 147 -19 q 196 -19 190 -19 "},"J":{"ha":476,"x_min":29,"x_max":453,"o":"m 168 -46 q 178 -48 174 -47 q 188 -49 182 -49 q 256 -28 221 -49 q 314 29 290 -7 q 344 85 331 56 q 366 153 357 115 q 382 241 375 192 q 393 356 389 290 q 394 415 394 372 q 394 510 394 458 q 394 617 394 563 q 392 710 393 671 l 389 783 l 413 785 q 438 788 432 786 q 447 797 444 790 q 440 817 453 810 q 433 820 438 819 q 407 821 429 821 q 356 821 392 821 q 283 819 321 821 q 216 815 246 818 q 182 808 186 813 q 182 788 172 799 q 187 785 185 786 q 199 785 189 785 l 218 785 q 244 785 238 785 q 250 782 250 785 q 251 752 250 781 q 254 685 251 724 q 256 528 257 610 q 250 385 254 447 q 241 258 246 311 q 231 165 236 204 q 218 99 225 126 q 203 50 211 72 q 181 14 196 32 q 160 -4 167 -4 q 129 19 150 -4 q 97 64 108 43 q 64 186 72 111 q 64 269 60 228 q 79 348 68 311 q 107 413 90 385 q 144 456 124 442 l 151 460 l 169 436 q 184 417 178 425 q 193 410 190 410 q 201 407 199 407 q 213 413 207 407 q 215 426 218 419 q 201 449 213 433 q 158 504 175 483 q 132 537 142 525 q 117 552 122 549 q 108 556 113 556 q 106 555 107 556 q 103 554 104 554 q 93 535 90 547 q 99 525 94 532 q 111 508 104 518 l 129 488 l 114 475 q 32 286 49 414 q 30 260 31 276 q 29 225 29 243 q 31 190 29 207 q 33 163 32 174 q 47 100 38 133 q 72 37 56 67 q 113 -15 89 7 q 168 -46 136 -37 "},"K":{"ha":478,"x_min":24,"x_max":454,"o":"m 397 -26 q 406 -28 400 -28 q 417 -24 413 -28 q 420 -17 419 -19 q 419 1 421 -14 q 419 25 419 10 q 418 54 418 40 q 415 88 417 82 q 403 94 413 94 q 388 72 389 94 l 388 64 q 386 60 386 61 q 337 106 363 74 q 287 175 311 138 q 242 249 263 213 q 210 311 222 286 l 203 325 l 215 351 q 231 384 218 358 q 261 446 243 410 q 300 524 279 482 q 340 603 321 565 q 374 669 358 640 q 394 710 389 699 l 406 732 l 421 732 q 447 742 444 732 q 440 761 454 754 q 428 764 435 764 q 404 763 421 764 q 370 760 388 763 q 339 756 353 758 q 322 750 325 753 q 319 735 317 743 q 339 726 326 726 l 347 726 q 360 728 353 728 q 364 728 361 728 q 344 685 364 726 q 294 586 324 644 q 240 478 265 528 q 208 414 215 428 q 203 401 206 407 q 199 392 201 396 q 194 382 196 386 q 193 411 194 396 q 193 444 193 426 q 192 482 193 463 q 190 565 190 524 q 188 625 189 607 q 184 665 185 643 q 182 699 183 686 l 182 729 l 194 729 q 213 733 208 729 q 218 748 219 740 q 208 760 217 756 q 185 762 206 761 q 121 763 165 763 l 39 764 l 33 758 q 32 739 24 749 q 38 735 35 736 q 53 733 42 735 l 69 733 l 69 726 q 72 668 71 724 q 72 535 72 613 q 73 463 72 497 q 74 401 74 428 q 76 359 75 375 q 76 342 76 343 q 77 315 76 339 q 79 260 78 292 q 81 185 79 229 q 83 107 82 140 q 85 51 85 75 q 85 26 85 28 q 74 24 85 26 q 57 8 57 22 q 58 1 57 4 q 67 -3 60 -1 q 92 -5 75 -4 q 139 -6 108 -6 q 186 -7 163 -7 q 233 -7 210 -7 q 243 -3 239 -7 q 246 15 250 7 q 228 25 242 22 q 218 26 224 25 q 208 26 213 26 l 200 26 l 199 38 q 197 72 199 44 q 195 132 196 99 q 194 196 194 165 q 194 240 194 226 l 194 275 l 214 239 q 283 119 246 178 q 378 24 319 61 q 389 8 388 17 q 390 -10 389 1 q 397 -26 392 -22 "},"L":{"ha":422,"x_min":21,"x_max":394,"o":"m 368 -85 q 376 -87 374 -87 q 393 -76 386 -87 q 394 -62 394 -72 q 393 -26 394 -53 q 390 28 390 19 q 385 42 389 38 q 374 47 381 47 q 363 42 368 47 q 358 35 358 39 q 357 18 357 31 l 357 0 l 315 -1 q 278 -2 299 -1 q 244 -3 257 -3 l 213 -3 l 214 415 l 214 836 q 240 839 217 839 q 268 842 261 840 q 278 851 275 844 q 271 871 282 863 q 267 873 269 872 q 257 874 265 874 q 207 872 243 874 q 133 869 171 871 q 65 863 96 867 q 32 857 35 860 q 35 832 21 843 q 39 828 38 829 q 46 828 40 828 q 52 828 49 828 q 61 829 56 829 l 83 829 l 83 586 q 83 477 83 536 q 84 360 83 418 q 85 250 85 303 q 85 160 85 197 q 85 58 85 94 q 86 1 86 21 q 87 -24 86 -18 q 89 -32 88 -29 q 97 -40 92 -37 q 126 -42 103 -42 q 156 -42 138 -42 q 201 -40 174 -42 q 279 -37 242 -37 q 329 -36 317 -36 l 358 -35 l 358 -50 q 368 -85 360 -79 "},"M":{"ha":643,"x_min":24,"x_max":615,"o":"m 200 -32 q 227 -33 215 -33 q 242 -33 239 -33 q 255 -21 253 -31 q 250 -4 257 -11 q 243 0 247 -1 q 226 1 239 1 l 208 3 l 208 15 q 204 131 206 46 q 200 386 203 217 q 200 488 200 439 q 199 574 200 536 q 198 637 199 613 q 197 665 197 661 l 197 683 q 200 678 199 683 q 207 647 200 676 q 225 571 214 618 q 251 462 236 524 q 282 331 265 400 q 313 199 299 261 q 340 91 328 138 q 358 17 351 44 q 365 -11 365 -10 q 374 -19 368 -18 q 381 -21 376 -21 q 399 -3 394 -21 q 401 14 399 1 q 406 42 403 26 q 414 81 408 56 q 424 129 419 107 q 433 177 428 151 q 440 218 438 203 q 448 258 443 232 q 458 306 453 283 q 468 355 463 328 q 476 399 474 382 q 485 445 479 410 q 499 518 492 481 q 513 585 507 556 q 519 615 518 614 q 520 592 519 615 q 521 526 521 568 q 520 430 521 485 q 519 313 519 375 q 518 78 518 147 q 515 7 518 8 q 492 6 508 7 q 471 1 475 6 q 469 -24 458 -12 q 475 -27 472 -26 q 490 -28 478 -28 q 515 -28 497 -28 q 551 -27 532 -28 q 586 -26 571 -26 q 603 -24 601 -25 q 615 -7 615 -21 q 611 1 615 -3 l 606 8 l 554 8 l 554 408 l 556 807 l 551 813 q 538 819 544 819 q 524 811 531 819 q 521 803 522 810 q 516 779 519 796 q 506 735 513 763 q 492 664 500 708 q 482 615 488 642 q 474 571 476 588 q 466 528 471 554 q 457 483 461 503 q 447 437 453 463 q 439 394 442 411 q 431 353 436 379 q 422 307 426 326 q 388 132 399 182 q 378 83 378 82 q 370 113 378 83 q 351 191 363 142 q 324 306 339 240 q 290 447 308 372 q 256 588 272 522 q 228 703 240 654 q 209 782 217 753 q 201 813 201 811 q 169 825 189 825 q 147 825 163 825 q 115 824 131 825 q 85 820 99 822 q 69 814 72 818 q 65 788 65 813 q 65 759 65 782 q 65 701 65 736 q 63 621 64 665 q 63 528 63 576 q 62 426 63 481 q 61 320 61 372 q 61 223 61 268 q 61 147 61 178 l 61 0 l 53 -1 q 32 -8 36 -6 q 33 -28 24 -18 q 39 -31 36 -31 q 53 -32 42 -32 q 72 -31 60 -32 q 100 -31 83 -31 q 156 -31 126 -31 q 200 -32 185 -31 "},"N":{"ha":547,"x_min":24,"x_max":524,"o":"m 200 -72 l 233 -72 l 242 -72 q 255 -60 253 -69 q 250 -43 257 -50 q 243 -40 247 -40 q 226 -37 239 -39 l 208 -37 l 208 -25 q 206 19 207 -10 q 203 92 204 47 q 201 199 203 136 q 200 347 200 263 q 200 448 200 400 q 199 533 200 496 q 198 595 199 571 q 197 624 197 619 q 197 641 196 635 q 199 653 197 647 q 203 658 203 664 q 215 617 203 657 q 250 508 228 576 q 301 346 272 439 q 364 144 331 253 q 388 66 376 103 q 410 1 400 29 q 425 -44 419 -28 q 432 -62 431 -61 q 444 -69 438 -69 q 460 -58 454 -69 q 462 -44 461 -56 q 463 8 463 -33 q 463 130 464 49 q 463 353 463 211 l 461 756 l 485 757 q 507 758 503 757 q 514 763 511 758 q 514 786 524 774 l 508 792 l 444 790 q 379 785 390 788 q 368 771 368 783 q 376 758 368 761 q 406 754 383 754 l 428 754 l 428 61 l 315 415 q 272 553 293 489 q 236 667 251 618 q 211 745 221 717 q 201 775 201 774 q 190 782 197 781 q 161 783 183 783 l 133 783 q 85 782 97 783 q 69 775 72 781 q 65 747 68 774 q 65 719 65 742 q 65 661 65 696 q 63 582 64 626 q 63 489 63 538 q 62 386 63 440 q 61 281 61 332 q 61 184 61 229 q 61 108 61 139 l 61 -39 l 53 -40 q 38 -44 42 -43 q 32 -47 35 -44 q 33 -67 24 -57 q 44 -70 36 -69 q 100 -71 53 -71 l 132 -71 q 170 -71 151 -71 q 200 -72 189 -71 "},"O":{"ha":592,"x_min":28,"x_max":564,"o":"m 256 -51 q 271 -53 260 -53 q 352 -37 318 -53 q 421 11 386 -21 q 488 97 461 49 q 532 199 515 146 q 556 308 549 253 q 564 418 564 364 q 561 484 563 463 q 553 542 560 506 q 526 637 544 586 q 478 730 508 688 q 407 801 449 772 q 313 829 365 829 q 215 799 264 829 q 125 711 165 769 q 32 449 53 607 q 29 410 31 435 q 28 358 28 385 q 29 308 28 332 q 32 269 31 283 q 54 171 39 224 q 97 72 69 118 q 163 -9 124 25 q 256 -51 203 -43 m 332 -7 q 303 -14 314 -14 q 292 -11 297 -14 q 223 78 251 11 q 182 250 194 146 q 179 294 181 267 q 178 353 178 322 q 179 411 178 383 q 182 456 181 439 q 223 646 194 567 q 290 761 251 725 q 342 786 318 786 q 371 779 358 786 q 445 717 415 758 q 493 623 475 675 q 519 517 511 571 q 526 417 526 463 q 516 299 526 363 q 483 174 506 235 q 422 65 460 114 q 332 -7 385 15 "},"P":{"ha":411,"x_min":25,"x_max":385,"o":"m 61 -46 q 71 -47 64 -47 q 88 -45 74 -46 q 121 -43 101 -44 q 140 -42 132 -43 q 157 -42 149 -42 q 178 -42 168 -42 q 199 -44 188 -43 q 215 -45 210 -44 q 225 -46 221 -46 q 232 -45 231 -46 q 236 -43 233 -44 q 240 -24 247 -35 q 218 -12 236 -14 l 210 -11 l 208 18 q 208 59 208 28 q 206 133 207 90 q 203 223 204 175 q 203 313 203 271 l 201 361 l 208 363 q 240 379 218 365 q 281 410 263 393 q 324 459 304 431 q 358 520 344 488 q 378 585 372 553 q 382 646 385 618 q 355 726 376 696 q 301 774 333 757 q 228 798 269 792 q 143 804 188 804 q 102 803 117 804 q 71 800 88 803 q 50 796 60 797 q 38 793 40 794 q 29 775 25 786 q 44 765 33 765 q 72 769 54 765 q 76 762 75 769 q 78 708 76 754 q 78 666 78 696 q 79 596 79 636 q 79 508 79 556 q 79 413 79 461 q 79 314 79 364 q 80 219 79 264 q 81 140 81 175 q 82 85 82 104 q 83 33 82 51 q 83 4 83 14 q 81 -9 82 -6 q 79 -14 81 -12 q 71 -17 76 -17 q 59 -22 65 -17 q 53 -32 53 -28 q 61 -46 53 -43 m 231 414 q 217 404 224 408 q 207 399 210 400 l 201 396 l 200 519 q 199 625 200 571 q 197 704 199 679 q 195 749 196 731 q 196 768 194 767 q 217 765 197 769 q 253 756 238 761 q 316 721 294 743 q 346 661 338 699 q 349 626 349 646 q 346 592 349 607 q 305 491 335 540 q 231 414 275 442 "},"Q":{"ha":625,"x_min":29,"x_max":606,"o":"m 256 -44 q 271 -46 260 -46 q 344 -33 311 -46 q 408 6 376 -19 l 418 15 l 451 -3 l 433 -3 q 420 -5 426 -4 q 413 -7 414 -6 q 404 -21 404 -10 q 415 -36 404 -32 q 424 -37 417 -36 q 442 -37 431 -37 q 483 -37 458 -37 q 529 -35 507 -36 q 568 -34 551 -35 q 588 -32 585 -33 q 592 -6 606 -22 l 588 0 l 525 0 l 485 19 q 457 35 471 26 q 444 42 450 39 q 448 47 444 43 q 454 56 451 50 q 517 165 490 100 q 554 300 543 229 q 559 331 557 318 q 562 358 561 344 q 563 387 563 371 q 563 425 563 403 q 563 463 563 447 q 561 491 563 478 q 558 518 560 504 q 553 550 557 532 q 526 644 544 594 q 478 738 508 694 q 407 808 449 781 q 313 836 365 836 q 125 719 208 836 q 32 457 56 619 q 30 418 31 443 q 29 366 29 393 q 30 315 29 339 q 32 276 31 290 q 54 178 39 231 q 97 78 69 125 q 163 -2 124 32 q 256 -44 203 -36 m 324 -3 q 304 -7 311 -7 q 292 -4 300 -7 q 223 85 251 18 q 182 257 194 153 q 180 301 181 274 q 179 360 179 329 q 180 419 179 390 q 182 464 181 447 q 195 547 185 492 q 225 656 206 601 q 274 753 244 711 q 343 794 303 794 q 371 788 354 794 q 445 724 415 767 q 493 631 475 682 q 519 524 511 579 q 526 424 526 469 q 510 266 526 344 q 451 118 493 188 q 440 100 447 110 q 427 81 433 90 q 416 66 421 72 q 410 60 411 60 q 395 66 408 60 q 363 82 382 72 q 319 104 331 99 q 304 110 308 110 q 301 109 301 110 q 299 108 300 108 q 289 97 290 106 q 294 81 288 88 q 309 71 296 78 q 340 56 322 64 q 369 41 357 47 q 382 33 382 35 q 363 17 385 31 q 324 -3 340 4 "},"R":{"ha":501,"x_min":28,"x_max":474,"o":"m 446 -37 q 457 -42 450 -42 q 474 -26 474 -42 q 466 -3 474 -21 q 449 33 458 14 q 430 69 439 53 q 417 86 421 85 q 408 89 411 89 q 396 82 403 89 q 394 69 393 75 q 403 47 394 64 q 409 28 410 31 q 396 22 408 25 l 388 22 q 342 48 357 22 q 318 97 328 74 q 294 150 304 132 q 272 181 283 168 l 265 189 l 283 200 q 419 358 371 258 q 465 538 463 446 q 429 710 468 631 q 329 829 392 786 q 181 872 267 872 q 117 865 144 872 q 56 843 89 858 q 38 833 42 836 q 31 826 33 831 q 31 813 28 819 q 46 803 36 803 l 49 803 q 58 807 51 804 q 74 814 65 810 l 94 822 l 96 801 q 97 439 96 619 q 103 76 99 258 l 103 13 l 93 13 q 64 1 68 13 q 63 -11 61 -4 q 69 -19 64 -17 q 107 -22 75 -22 q 140 -22 115 -22 q 193 -21 165 -22 q 243 -18 221 -19 q 267 -14 265 -17 q 272 6 278 -6 q 251 17 268 17 q 247 16 249 17 q 243 15 246 15 l 232 14 l 231 49 q 229 85 229 63 q 229 125 229 107 l 229 168 l 233 168 q 258 148 244 168 q 282 94 271 128 q 297 57 289 76 q 318 22 306 38 q 348 -3 331 7 q 388 -14 365 -14 q 414 -10 401 -14 q 424 -7 422 -7 q 428 -6 426 -6 q 435 -19 429 -6 q 441 -30 438 -25 q 446 -37 444 -35 m 250 221 q 233 211 239 217 q 231 210 232 211 l 229 210 q 228 250 229 210 q 227 350 228 290 q 226 481 226 410 q 224 615 225 551 q 223 724 224 678 q 222 781 222 771 l 222 835 l 229 833 q 240 831 232 833 q 254 826 247 829 q 350 711 319 806 q 372 569 371 646 q 359 423 374 493 q 317 298 344 353 q 250 221 289 243 "},"S":{"ha":492,"x_min":26,"x_max":468,"o":"m 235 -85 l 267 -85 q 382 -45 331 -82 q 453 54 433 -8 q 463 121 465 90 q 444 189 461 151 q 420 235 433 217 q 383 279 407 253 q 353 309 369 296 q 303 347 338 322 q 229 414 254 383 q 190 489 204 444 q 210 700 157 593 q 248 758 222 726 q 306 789 274 789 q 329 785 321 789 q 349 769 338 782 q 366 748 357 760 q 372 733 375 736 l 365 732 q 349 731 356 732 q 321 726 328 728 q 311 717 314 724 q 317 697 307 703 q 321 695 319 696 q 329 694 322 694 q 359 696 338 694 q 402 699 381 697 q 442 705 424 701 q 463 714 460 708 q 457 736 468 728 q 442 738 454 738 l 428 738 q 417 737 421 738 q 410 736 413 736 q 404 740 404 736 q 397 758 404 744 q 381 782 389 771 q 332 826 358 810 q 269 842 306 842 q 253 842 261 842 q 238 839 244 842 q 174 807 201 829 q 125 755 146 785 q 91 690 104 725 q 71 621 78 656 q 66 492 58 550 q 104 376 74 435 q 165 292 128 329 q 274 210 203 254 q 301 192 288 201 q 322 176 315 182 q 366 122 350 154 q 378 67 382 90 q 353 19 372 39 q 310 -12 335 0 q 256 -29 285 -24 q 203 -35 228 -35 q 144 -11 167 -29 q 118 31 121 7 l 117 39 l 139 39 q 165 42 161 39 q 172 56 172 47 q 165 69 172 64 q 151 73 161 72 q 104 74 140 74 l 75 74 q 40 72 44 74 q 28 60 29 69 q 35 44 26 51 q 60 40 39 40 l 81 40 l 82 28 q 101 -18 85 1 q 139 -51 117 -37 q 187 -72 161 -64 q 235 -85 213 -81 "},"T":{"ha":469,"x_min":28,"x_max":442,"o":"m 110 -14 q 118 -17 113 -17 q 139 -17 124 -17 q 182 -17 154 -17 q 258 -14 210 -17 l 349 -12 l 354 -7 q 353 18 365 6 q 346 22 350 21 q 324 22 342 22 l 297 21 l 297 51 q 297 92 297 58 q 297 179 297 126 q 295 300 296 232 q 294 443 294 368 q 294 584 294 518 q 293 700 293 650 q 293 779 293 750 q 293 808 293 808 q 310 810 301 808 l 350 810 l 407 810 l 407 792 q 413 769 408 775 q 425 765 419 765 q 436 769 432 765 q 441 778 440 772 q 442 817 442 785 q 440 863 442 853 q 431 875 438 872 q 424 876 428 876 q 407 856 407 876 q 404 844 407 847 q 353 844 403 844 q 232 843 303 843 l 63 842 l 63 850 q 44 876 63 876 q 33 871 39 876 l 28 865 l 29 821 q 31 777 29 786 q 39 764 32 768 q 47 761 42 761 q 58 765 54 761 q 63 772 63 769 q 64 789 64 775 l 65 807 l 156 807 l 157 768 q 157 492 157 629 q 160 215 157 354 l 161 18 l 140 18 q 114 15 121 18 q 104 6 107 13 q 110 -14 100 -6 "},"U":{"ha":592,"x_min":24,"x_max":565,"o":"m 242 -36 q 258 -38 249 -37 q 278 -39 267 -39 q 422 38 372 -39 q 465 128 449 75 q 490 238 481 181 q 503 352 500 296 q 508 451 507 408 q 513 565 511 525 q 514 628 514 606 q 514 666 514 651 q 513 701 514 681 q 512 722 513 713 q 511 739 511 732 q 511 756 511 749 q 533 757 511 757 q 553 759 549 758 q 560 763 557 760 q 563 778 565 769 q 550 789 560 786 q 524 788 544 789 q 483 786 504 788 q 443 783 461 785 q 422 779 425 782 q 413 765 413 776 q 418 757 413 763 l 424 753 l 476 756 l 479 715 q 481 667 481 690 q 480 611 481 643 q 478 535 479 579 q 474 426 476 492 q 453 224 468 304 q 411 86 439 144 q 387 46 401 65 q 364 24 372 26 q 347 29 361 22 q 318 44 332 36 q 253 126 279 69 q 215 257 226 182 q 213 294 214 269 q 211 349 211 319 q 211 410 211 379 q 213 464 211 440 q 219 580 215 515 q 228 696 224 644 q 230 719 229 708 q 231 740 231 731 q 232 758 232 750 q 249 761 232 761 q 273 766 267 763 q 279 779 279 769 q 274 792 279 786 l 268 796 l 225 794 q 168 794 199 794 q 111 792 138 793 q 66 790 85 790 q 44 789 47 789 q 32 785 40 789 q 33 765 24 776 q 53 761 36 761 l 69 761 l 68 742 q 67 715 68 735 q 63 674 65 694 q 52 525 54 590 q 51 382 50 460 q 55 309 53 340 q 60 252 57 278 q 68 204 64 226 q 79 158 72 182 q 144 28 103 79 q 242 -36 186 -22 "},"V":{"ha":578,"x_min":24,"x_max":550,"o":"m 32 771 q 32 749 24 760 q 40 744 35 744 q 65 742 46 743 l 85 742 l 161 356 q 192 206 178 276 q 216 82 206 135 q 233 -2 226 29 q 240 -35 240 -33 q 244 -39 242 -37 q 249 -43 246 -40 q 257 -44 251 -44 q 276 -44 264 -44 q 317 -42 289 -44 q 369 -37 360 -39 q 382 -29 379 -36 q 387 3 382 -28 q 399 85 392 33 q 417 207 407 138 q 438 354 426 276 q 458 501 449 432 q 476 623 468 571 q 488 706 483 675 q 492 739 492 738 l 493 744 l 514 744 q 543 748 536 744 q 550 763 550 751 q 540 776 550 774 q 475 779 529 779 l 413 779 l 408 774 q 408 751 397 763 q 417 747 413 747 q 436 744 421 746 l 458 744 l 411 417 q 393 290 401 350 q 378 186 385 231 q 368 117 372 142 q 364 92 364 92 q 347 179 358 119 q 319 324 336 232 q 274 563 301 415 q 249 687 260 635 q 239 742 239 739 l 238 747 l 260 747 q 286 749 279 747 q 296 758 293 751 q 292 776 300 771 q 286 780 290 779 q 267 781 282 781 q 243 780 257 781 q 208 779 229 779 q 140 778 176 779 q 83 778 103 778 l 38 776 l 32 771 "},"W":{"ha":833,"x_min":22,"x_max":813,"o":"m 249 -43 q 257 -44 251 -44 q 276 -44 264 -44 q 317 -42 289 -44 q 369 -37 360 -39 q 382 -29 379 -36 q 386 -1 382 -28 q 397 74 390 26 q 413 183 404 121 q 432 314 422 244 q 451 447 442 385 q 467 554 460 508 q 478 627 474 600 q 482 654 482 654 q 496 578 486 635 q 519 447 506 521 q 547 290 532 372 q 574 140 561 208 q 595 26 586 71 q 606 -22 604 -19 q 619 -33 610 -33 q 635 -25 629 -33 q 639 5 635 -24 q 650 83 643 33 q 667 203 657 133 q 688 358 676 274 q 708 505 699 436 q 724 625 717 574 q 735 707 731 676 q 739 738 739 738 q 768 740 740 740 q 792 741 788 740 q 800 746 797 742 q 800 769 813 758 l 794 774 l 646 774 l 640 769 q 640 746 629 758 q 648 742 643 743 q 672 740 653 740 q 694 740 685 740 q 703 739 703 740 q 697 691 703 739 q 681 572 690 643 q 661 417 672 500 q 640 264 650 335 q 624 147 631 193 q 617 100 617 100 q 612 126 617 100 q 599 194 607 151 q 581 295 592 238 q 560 418 571 353 q 538 542 549 483 q 520 644 528 600 q 508 713 513 688 q 503 740 503 739 q 503 744 501 743 q 518 744 506 744 q 544 748 538 744 q 550 763 550 751 q 540 776 550 774 q 475 779 529 779 l 413 779 l 408 774 q 410 751 399 764 q 417 747 413 747 q 436 744 421 746 l 458 743 l 411 417 q 393 290 401 350 q 378 186 385 231 q 369 117 372 142 q 365 92 365 92 q 361 110 365 92 q 347 179 357 128 q 319 323 338 231 q 274 563 301 415 q 250 687 260 635 q 239 742 240 739 l 238 747 l 261 747 q 287 749 281 747 q 296 758 293 751 q 293 776 300 769 q 286 780 290 779 q 267 781 282 781 q 244 780 258 781 q 210 779 231 779 q 140 778 176 779 q 83 778 103 778 l 38 776 l 33 771 q 32 749 22 760 q 41 744 36 744 q 65 742 46 743 l 85 742 l 163 356 q 192 206 178 276 q 217 83 207 136 q 234 -2 228 29 q 240 -35 240 -33 q 249 -43 243 -40 "},"X":{"ha":608,"x_min":26,"x_max":581,"o":"m 119 -46 l 182 -46 q 194 -34 192 -44 q 190 -17 197 -24 q 183 -13 188 -14 q 163 -11 178 -12 l 146 -11 q 139 -10 142 -10 q 161 36 140 -7 q 207 131 182 79 q 272 267 236 192 q 281 247 272 267 q 300 199 289 228 q 324 135 311 169 q 349 72 338 101 q 368 23 361 43 q 375 3 375 3 q 370 2 374 3 q 360 1 367 1 q 342 -6 347 0 q 338 -21 336 -12 q 349 -32 340 -29 l 356 -32 q 399 -31 368 -32 q 462 -30 429 -31 q 523 -28 494 -29 q 561 -25 551 -26 q 581 -7 581 -22 q 575 6 581 3 q 553 10 569 8 l 533 10 l 357 444 l 503 744 l 533 746 q 561 748 557 747 q 569 753 565 749 q 569 775 579 765 q 566 778 568 778 q 557 780 564 779 q 535 781 550 781 q 496 782 521 782 l 457 782 q 421 781 425 782 q 408 768 410 776 q 415 753 407 760 q 422 749 418 750 q 442 749 426 749 q 464 746 467 749 q 443 701 463 742 q 401 614 424 661 q 359 528 378 567 q 340 490 340 490 q 323 530 339 490 q 285 624 307 569 l 231 757 l 239 758 q 247 760 242 760 q 257 760 253 760 q 276 767 269 760 q 279 783 282 774 q 269 792 276 790 q 239 794 263 794 l 219 794 q 170 792 201 793 q 111 792 139 792 q 58 790 75 790 q 38 788 42 789 q 28 776 29 785 q 33 761 26 767 q 60 756 38 757 l 83 756 l 168 535 q 201 450 186 490 q 228 379 217 410 q 247 331 240 349 q 254 313 254 313 q 231 263 254 311 q 176 149 208 215 l 100 -11 l 81 -11 q 60 -12 65 -11 q 51 -21 54 -14 q 58 -42 46 -36 q 119 -46 60 -43 "},"Y":{"ha":564,"x_min":24,"x_max":542,"o":"m 160 -32 q 199 -33 167 -32 q 272 -33 232 -33 l 368 -33 l 374 -29 q 374 -4 386 -17 q 354 1 371 0 q 338 3 338 1 q 344 36 340 18 q 351 72 347 51 q 358 114 354 92 q 371 178 363 138 q 388 268 379 218 q 408 373 397 318 q 429 481 419 428 q 449 582 439 533 q 465 669 458 631 q 477 732 472 707 q 483 763 482 757 l 489 790 l 507 790 q 524 792 521 792 q 531 797 528 793 q 531 818 542 808 l 526 824 l 413 824 q 330 823 364 824 q 293 821 296 822 q 283 807 283 817 q 311 789 283 789 l 326 789 l 325 783 q 317 741 324 779 q 299 649 310 703 q 276 532 288 594 q 254 417 264 469 q 238 328 244 364 q 231 292 231 293 q 228 296 231 289 q 219 328 225 303 q 201 403 213 354 q 171 531 190 451 q 149 622 160 579 q 131 697 139 664 q 119 749 124 729 q 114 769 114 768 l 113 775 l 124 775 q 149 785 143 775 q 144 806 156 796 q 139 808 142 807 q 128 808 136 808 l 113 808 q 87 808 101 808 q 61 807 72 808 q 40 805 44 806 q 32 800 36 804 q 33 779 24 789 q 41 773 38 774 q 58 772 44 772 l 78 772 l 144 490 q 171 380 158 432 q 192 288 183 328 q 207 226 201 249 q 213 203 213 203 q 206 171 213 200 q 193 101 200 142 l 174 4 l 160 3 q 140 0 146 3 q 135 -8 138 -1 q 132 -18 132 -14 q 140 -28 135 -25 q 160 -32 144 -31 "},"Z":{"ha":382,"x_min":28,"x_max":354,"o":"m 317 -114 q 329 -121 324 -121 q 344 -111 338 -121 q 347 -98 346 -110 q 350 -70 349 -86 q 352 -39 351 -54 q 353 -15 353 -24 q 352 -5 353 -8 q 349 1 351 -1 q 336 7 343 7 q 334 6 335 7 q 331 6 333 6 q 318 -17 318 0 q 318 -24 318 -19 q 317 -31 318 -28 l 315 -37 l 249 -36 q 201 -35 221 -35 q 181 -33 182 -35 q 185 -11 182 -24 q 190 15 188 0 q 196 44 193 29 q 208 101 200 61 q 228 198 217 142 q 255 322 240 254 q 283 458 269 389 q 311 590 299 528 q 333 699 324 651 q 349 774 343 746 q 354 803 354 801 q 336 821 354 818 q 301 822 333 821 q 226 824 268 822 q 149 826 185 825 q 104 826 113 826 l 83 828 l 83 847 q 79 871 83 867 q 67 876 75 876 q 51 865 56 876 q 49 806 49 857 q 49 758 49 765 q 54 747 50 751 q 67 742 58 742 q 78 746 74 742 q 83 771 82 750 l 85 792 l 118 792 q 149 791 132 792 q 178 790 167 790 q 201 788 196 789 q 204 785 206 788 q 197 751 204 785 q 178 660 190 718 q 149 527 165 603 q 115 365 133 451 q 67 141 85 224 q 41 15 50 58 q 30 -42 32 -28 q 29 -57 28 -56 q 36 -67 31 -61 q 77 -70 40 -69 q 207 -72 114 -71 l 314 -72 l 313 -89 q 313 -106 313 -103 q 317 -114 314 -108 "},"a":{"ha":581,"x_min":26,"x_max":558,"o":"m 460 13 q 489 12 472 13 q 517 11 506 11 q 540 13 536 13 q 547 17 544 14 q 547 39 558 28 q 541 44 544 43 q 518 46 538 44 q 499 47 503 46 q 494 49 494 47 q 499 78 496 53 q 503 138 501 103 q 508 213 506 174 q 511 286 510 253 q 513 358 513 326 q 510 418 513 389 q 503 477 508 447 q 490 544 499 507 q 467 631 482 586 q 426 712 451 675 q 365 772 401 749 q 278 794 328 794 q 206 784 242 794 q 142 753 171 774 l 131 744 l 125 753 q 110 769 113 767 q 103 771 107 771 q 90 765 94 771 q 88 751 85 758 q 99 735 89 749 q 122 708 110 722 q 146 683 135 694 q 158 671 157 671 q 160 670 160 671 q 164 669 161 669 q 176 676 171 669 q 178 690 181 682 q 172 698 176 693 q 164 708 168 703 q 153 722 154 719 q 156 726 153 724 q 202 750 169 740 q 256 760 235 760 q 278 759 272 760 q 290 754 283 758 q 336 701 322 740 q 356 629 350 661 q 361 584 358 610 q 363 557 364 558 q 357 561 360 558 q 342 568 353 563 q 291 590 314 583 q 236 597 268 597 q 167 579 199 596 q 112 538 136 563 q 71 480 88 513 q 43 414 54 447 q 28 322 31 371 q 36 231 26 272 q 60 163 43 197 q 101 101 76 129 q 157 55 125 72 q 226 38 189 38 q 290 53 258 38 q 350 85 322 68 q 364 94 356 89 q 369 97 367 96 l 369 71 l 371 44 l 358 43 q 336 33 340 42 q 342 15 333 21 q 357 15 344 15 q 386 14 369 14 q 424 14 403 14 q 460 13 446 14 m 314 103 l 294 93 q 271 104 286 94 q 246 125 256 114 q 199 199 215 158 q 175 283 182 239 q 171 369 168 317 q 185 461 174 422 q 222 531 196 501 q 274 560 247 560 q 316 547 289 560 q 358 521 343 533 l 367 513 l 368 326 l 368 142 l 350 128 q 332 114 343 121 q 314 103 321 107 "},"b":{"ha":517,"x_min":25,"x_max":489,"o":"m 78 -1 q 91 -3 86 -3 q 101 -4 96 -4 q 111 -3 106 -4 q 126 -1 117 -3 q 252 34 196 6 q 357 111 308 63 q 429 207 400 154 q 474 316 458 260 q 488 429 489 372 q 471 538 488 486 q 385 669 443 618 q 247 731 328 719 l 222 735 l 221 789 q 219 837 219 813 q 219 872 219 861 l 221 901 l 238 901 q 261 907 257 903 q 265 924 268 914 q 251 935 261 933 q 206 935 239 935 q 137 934 174 935 q 70 931 100 933 q 35 926 40 929 q 29 907 25 917 q 57 896 35 896 l 71 896 l 72 888 q 73 853 72 886 q 75 767 74 821 q 78 641 76 713 q 81 489 79 569 q 83 335 82 408 q 86 203 85 261 q 88 109 88 146 q 89 65 89 72 l 90 32 l 79 33 l 72 33 q 53 24 57 33 q 78 -1 42 1 m 251 74 q 239 67 242 67 q 239 75 239 71 q 238 94 238 81 q 236 145 238 100 q 233 256 235 190 q 230 395 232 321 q 226 533 228 469 q 224 642 225 597 q 224 692 224 688 l 224 699 l 235 699 q 307 669 282 692 q 351 606 332 646 q 383 504 372 560 q 392 390 393 449 q 378 275 390 332 q 343 171 367 218 q 305 114 325 135 q 251 74 285 93 "},"c":{"ha":440,"x_min":28,"x_max":413,"o":"m 224 7 q 249 4 238 4 q 269 6 260 4 q 286 10 279 7 q 356 63 328 26 q 365 72 363 72 q 378 63 368 72 q 396 51 392 51 q 399 52 399 51 q 401 53 400 53 q 410 63 408 56 q 408 78 413 71 q 357 121 401 86 q 342 134 349 128 q 332 143 335 140 q 321 149 326 149 q 306 135 308 149 q 306 127 304 131 q 321 113 308 124 q 338 94 338 99 q 319 72 333 88 q 299 56 306 56 q 278 67 293 56 q 247 93 263 78 q 219 146 233 107 q 194 229 206 185 q 175 316 183 274 q 164 378 167 358 q 161 408 163 389 q 159 449 160 428 q 159 490 158 469 q 161 525 160 511 q 172 615 164 569 q 189 692 179 660 q 224 771 203 736 q 263 811 246 806 q 281 808 275 811 q 296 794 286 806 q 314 766 303 786 q 324 743 325 746 q 317 739 324 742 q 301 733 310 736 q 285 727 292 731 q 275 722 278 724 q 272 704 264 714 q 283 697 276 697 q 291 699 286 697 q 303 703 296 700 q 325 709 311 706 q 352 716 339 713 q 376 722 365 719 q 388 725 386 725 q 403 738 400 725 q 400 749 403 744 q 386 757 396 757 q 365 753 378 757 l 354 749 l 351 756 q 339 784 349 765 q 322 814 329 803 q 274 858 300 846 q 229 868 250 868 q 173 857 197 868 q 125 824 149 846 q 75 749 94 793 q 45 656 56 704 q 31 557 35 607 q 28 464 28 507 q 34 335 28 408 q 61 195 40 263 q 121 75 82 128 q 224 7 160 22 "},"d":{"ha":524,"x_min":24,"x_max":499,"o":"m 242 708 q 135 619 181 672 q 63 504 90 567 q 30 374 36 442 q 40 240 24 307 q 85 138 54 185 q 160 56 117 90 q 257 2 204 21 q 368 -17 310 -17 q 398 -15 376 -17 q 441 -10 419 -14 q 479 1 463 -7 q 496 21 496 8 q 492 32 496 28 q 481 36 486 36 q 464 33 478 36 q 459 32 461 32 q 456 31 457 32 q 451 31 453 31 q 451 65 451 31 q 451 157 451 100 q 451 287 451 214 q 451 435 451 360 q 452 583 451 511 q 453 713 453 656 q 453 806 453 771 q 454 840 454 840 l 468 840 q 488 847 483 842 q 488 871 499 858 l 482 875 l 383 875 l 286 874 l 281 869 q 275 857 275 864 q 297 839 275 840 l 310 838 l 310 789 q 308 739 310 739 q 280 727 304 739 q 242 708 256 715 m 176 136 q 146 240 154 183 q 142 357 138 296 q 162 480 146 418 q 207 599 178 542 q 245 661 231 643 q 289 693 260 679 q 297 697 293 696 q 303 700 300 699 q 308 703 306 701 q 309 676 308 703 q 310 603 310 649 q 310 495 310 557 q 310 364 310 433 q 310 197 310 263 q 310 92 310 131 q 309 40 310 54 q 307 25 308 25 q 280 31 297 25 q 251 43 263 36 q 212 80 233 53 q 176 136 190 107 "},"e":{"ha":514,"x_min":28,"x_max":490,"o":"m 243 -8 q 271 -11 260 -11 q 363 17 326 -11 q 432 86 400 44 q 435 88 432 88 q 449 83 436 88 q 471 75 464 75 q 485 85 478 75 q 481 104 490 97 q 467 113 479 107 q 438 126 454 118 q 404 141 414 138 q 392 143 394 144 q 378 126 378 140 q 394 108 378 115 l 401 104 l 390 89 q 357 60 369 64 q 346 57 351 57 q 325 61 336 57 q 265 113 290 74 q 222 201 239 153 q 197 301 206 250 q 189 386 189 351 l 190 396 l 322 472 q 416 526 376 503 q 458 550 456 549 q 463 562 463 554 q 458 593 464 569 q 437 672 451 626 q 399 758 422 717 q 343 828 375 800 q 271 857 311 857 q 169 817 218 857 q 86 704 121 776 q 31 494 43 615 q 28 461 29 482 q 28 418 28 440 q 29 375 28 396 q 32 340 31 354 q 51 239 38 294 q 90 133 65 183 q 153 43 115 82 q 243 -8 190 4 m 306 503 q 225 456 258 475 q 190 438 192 438 q 188 453 188 436 q 219 642 193 558 q 289 769 246 725 q 322 789 308 789 q 356 763 339 789 q 388 701 374 736 q 413 633 403 667 q 425 586 422 600 q 427 574 428 575 q 424 569 426 572 q 387 549 421 568 q 306 503 353 529 "},"f":{"ha":425,"x_min":22,"x_max":404,"o":"m 51 -8 q 64 -12 54 -11 q 121 -12 74 -12 q 179 -12 149 -12 q 228 -11 210 -11 q 263 -9 257 -10 q 272 -6 269 -8 q 272 19 285 7 q 251 24 267 24 q 236 25 236 24 q 235 56 236 26 q 234 119 235 85 q 233 183 233 154 q 233 213 233 213 q 242 214 235 214 q 261 215 250 214 l 288 217 l 289 207 q 307 186 293 186 q 318 189 313 186 q 324 201 324 193 q 322 238 325 210 q 316 279 319 271 q 301 288 313 288 q 285 263 282 288 l 286 251 l 260 250 q 249 249 254 250 q 242 249 244 249 q 233 249 238 249 q 232 292 233 250 q 230 387 231 333 q 229 489 229 440 q 229 551 229 538 q 232 597 229 564 q 240 665 235 629 q 253 732 246 701 q 269 769 260 763 q 283 775 275 775 q 297 771 292 775 q 306 763 300 769 q 317 750 311 757 q 326 737 322 743 q 331 729 331 731 q 329 728 331 728 q 325 724 329 726 q 310 696 303 713 q 317 690 311 693 q 326 686 322 686 q 340 692 329 686 q 362 706 350 699 q 383 722 374 714 q 394 731 393 729 q 385 756 404 749 q 382 756 383 756 q 379 757 381 757 q 369 753 376 757 q 361 750 361 750 q 232 844 293 844 q 165 812 192 844 q 119 728 138 779 q 91 614 101 676 q 76 492 81 551 q 70 385 71 433 q 69 313 69 336 l 69 240 l 56 240 q 31 215 22 236 q 50 204 35 204 q 54 205 53 204 q 58 206 56 206 q 71 204 71 206 q 73 166 71 194 q 77 107 75 138 q 81 51 79 76 q 83 25 83 26 q 74 22 83 22 q 48 13 56 22 q 51 -8 40 3 "},"g":{"ha":603,"x_min":22,"x_max":575,"o":"m 265 -125 q 289 -126 274 -126 q 413 -86 367 -126 q 484 14 458 -46 q 520 143 510 74 q 536 272 531 213 q 544 430 543 349 q 543 611 546 511 q 542 668 543 644 q 541 708 542 692 q 539 739 540 725 q 536 767 538 753 l 535 779 l 547 779 l 553 779 q 565 781 563 779 q 574 794 575 785 q 563 810 574 804 q 544 813 558 813 q 482 813 531 813 q 350 804 361 813 q 343 786 340 799 q 358 778 346 778 l 367 778 q 382 781 378 781 l 388 781 l 389 743 q 390 729 390 736 q 390 717 390 722 q 390 706 390 711 q 371 721 389 706 q 236 785 299 785 q 137 745 178 785 q 72 657 96 706 q 31 518 40 590 q 38 375 22 446 q 60 302 44 338 q 101 239 76 267 q 160 194 126 211 q 235 178 193 178 q 301 197 274 178 q 357 240 329 215 l 382 267 l 382 250 q 379 176 382 217 q 369 95 376 136 q 349 17 361 54 q 317 -46 336 -19 q 292 -73 301 -65 q 267 -81 282 -81 q 260 -80 264 -81 q 253 -79 257 -79 q 178 -49 208 -74 q 161 -32 172 -44 q 140 -6 150 -19 q 122 18 129 7 q 114 32 114 29 q 118 39 114 35 q 128 49 122 43 q 142 67 142 61 q 136 76 142 72 q 126 81 132 81 q 117 76 124 81 q 102 65 113 75 q 81 45 92 56 q 60 24 69 35 q 47 10 50 14 q 49 -15 39 -6 q 58 -21 54 -21 q 81 0 67 -21 l 88 8 l 103 -12 q 171 -88 135 -57 q 265 -125 207 -119 m 279 222 q 261 217 269 217 q 235 233 251 217 q 206 274 218 250 q 184 326 193 299 q 169 381 175 354 q 160 429 163 408 q 158 456 158 439 q 158 490 158 472 q 158 526 158 508 q 160 553 158 543 q 168 601 163 574 q 183 654 174 628 q 207 703 193 681 q 242 739 221 726 q 253 742 249 742 q 267 743 257 743 q 343 703 294 742 q 372 674 354 692 q 392 653 389 657 q 393 597 394 649 q 388 433 392 544 q 385 363 386 393 q 385 329 385 332 q 371 305 385 321 q 340 272 357 289 q 305 240 322 254 q 279 222 288 226 "},"h":{"ha":522,"x_min":28,"x_max":501,"o":"m 28 840 q 56 822 28 822 l 69 822 l 68 579 q 67 472 68 529 q 67 358 67 414 q 67 251 67 301 q 67 167 67 201 l 67 -1 l 56 -1 q 35 -18 35 -4 q 43 -33 35 -31 q 56 -36 49 -36 q 88 -35 61 -36 q 147 -32 115 -33 q 203 -28 178 -31 q 231 -26 229 -26 q 242 -15 240 -24 q 238 1 244 -6 q 231 6 235 4 q 215 7 226 7 l 199 7 l 199 335 l 210 354 q 233 392 219 371 q 263 432 247 413 q 298 467 279 451 q 336 492 317 483 q 344 494 342 493 q 349 494 346 494 q 352 494 351 494 q 356 493 353 493 q 383 456 369 486 q 404 381 396 425 q 415 244 414 322 q 408 82 415 165 q 403 44 406 49 q 393 38 401 40 q 379 26 382 35 q 383 10 376 17 q 390 6 386 7 q 404 4 393 4 q 422 5 410 4 q 449 6 435 6 q 474 9 463 7 q 489 15 486 11 q 489 39 501 26 q 469 43 486 43 l 454 43 l 458 71 q 467 156 465 119 q 468 244 468 192 q 465 322 468 274 q 451 416 463 369 q 416 496 439 463 q 351 529 393 529 q 311 519 331 529 q 274 494 292 510 q 243 463 257 479 q 218 431 229 446 q 208 417 213 424 q 201 408 204 411 q 199 411 200 407 q 199 435 199 415 q 199 497 199 456 q 199 614 199 539 l 199 822 l 213 824 q 232 829 226 825 q 232 853 244 842 l 226 858 l 136 858 q 71 857 99 857 q 42 856 43 857 q 28 840 28 853 "},"i":{"ha":292,"x_min":22,"x_max":265,"o":"m 238 39 l 225 40 l 225 47 q 224 80 225 50 q 222 150 224 110 q 220 238 221 190 q 219 335 219 286 q 219 429 219 383 q 221 510 219 475 q 223 585 222 547 q 224 660 224 622 q 227 663 225 663 q 240 664 229 664 q 253 665 250 664 q 258 668 256 665 q 262 684 265 675 q 247 696 258 693 l 236 696 q 196 696 228 696 q 128 694 164 696 q 64 691 93 693 q 32 685 35 689 q 32 665 22 675 q 38 662 35 663 q 56 661 42 661 l 74 661 l 75 347 q 75 179 75 242 q 74 85 75 117 q 73 43 74 53 q 71 33 72 33 q 60 31 68 33 q 39 15 39 28 q 49 1 39 4 q 56 0 51 0 q 90 4 63 3 q 171 6 118 6 q 227 6 203 6 q 254 8 251 7 q 261 16 258 10 q 261 26 264 22 q 238 39 257 38 m 81 776 q 103 751 88 761 q 136 740 119 740 q 168 746 156 740 q 190 763 179 751 q 217 813 211 783 q 211 867 222 843 q 182 899 199 892 q 163 904 175 901 q 142 907 150 907 q 114 897 126 907 q 93 872 101 886 q 80 840 85 857 q 75 807 75 822 q 81 776 76 788 "},"j":{"ha":433,"x_min":26,"x_max":406,"o":"m 281 825 q 284 824 283 825 q 288 824 285 824 q 290 824 289 824 q 294 824 292 824 q 299 824 297 824 q 304 825 301 825 q 340 842 325 829 q 362 873 354 856 q 369 910 369 890 q 357 947 368 929 q 300 979 336 979 q 238 944 261 979 q 224 893 222 921 q 240 849 225 867 q 281 825 256 831 m 403 772 q 395 781 400 779 q 367 783 390 783 q 339 783 356 783 q 299 782 322 783 q 235 779 263 781 q 206 778 208 778 q 193 766 196 775 q 197 750 190 757 q 217 744 200 746 l 233 744 l 233 738 q 234 717 233 736 q 236 667 235 699 q 240 595 238 636 q 243 508 242 554 q 249 349 247 411 q 251 249 251 286 q 251 192 251 211 q 247 160 250 172 q 237 119 243 140 q 219 80 231 97 q 192 50 208 63 q 153 36 176 38 q 147 35 149 36 q 142 35 144 35 q 126 40 136 35 q 65 142 69 71 q 81 210 64 175 q 91 225 83 214 q 108 247 99 236 q 126 265 117 257 q 139 274 135 274 q 146 264 142 274 q 168 244 157 244 q 185 263 188 244 q 178 278 185 265 q 163 307 171 292 q 148 335 156 322 q 138 350 140 349 q 128 354 136 354 q 117 350 121 354 q 115 322 106 343 q 122 307 122 311 q 119 304 121 306 q 115 301 117 301 q 111 297 114 300 q 78 267 97 288 q 51 233 58 246 q 30 165 33 200 q 37 98 26 129 q 70 41 47 67 q 126 1 93 15 q 148 -6 133 -1 q 171 -10 163 -10 q 185 -11 174 -11 q 265 6 231 -11 q 322 51 299 22 q 357 117 344 79 q 372 197 369 154 q 372 228 372 203 q 372 291 372 253 q 369 378 371 329 q 367 481 368 428 q 365 581 365 533 q 363 664 364 628 q 362 721 363 700 q 361 743 361 742 q 363 747 361 746 q 376 749 365 747 q 396 752 390 750 q 404 761 401 754 q 403 772 406 767 "},"k":{"ha":475,"x_min":21,"x_max":447,"o":"m 33 860 q 33 839 21 850 q 41 834 38 835 q 60 833 44 833 l 72 833 l 74 735 q 74 672 74 714 q 75 578 75 631 q 75 464 75 525 q 75 343 75 403 l 76 53 l 61 51 q 42 46 46 51 q 39 28 36 38 q 48 19 42 21 q 82 18 54 18 l 136 18 q 194 19 168 19 q 222 21 219 19 q 235 32 232 22 q 232 49 239 42 q 224 52 229 51 q 208 53 219 53 l 190 54 l 190 265 l 196 264 q 228 229 210 260 q 244 191 236 213 q 269 111 251 169 q 392 19 297 19 l 410 21 l 413 11 q 417 -3 413 4 q 431 -10 422 -10 q 440 -6 436 -10 q 447 8 447 -1 q 440 47 447 17 q 433 76 436 63 q 429 92 431 89 q 414 104 425 104 q 401 99 407 104 q 398 93 399 96 q 399 81 397 90 q 400 58 401 60 q 389 54 399 56 q 331 74 351 54 q 300 129 310 94 q 214 290 258 272 q 204 296 204 293 q 218 314 210 304 q 233 334 225 322 q 249 358 240 346 q 286 410 267 383 q 315 450 306 438 l 336 481 l 347 472 q 363 463 357 463 q 378 469 374 463 q 378 486 382 476 q 367 501 376 490 q 346 523 357 511 q 325 543 335 535 q 311 551 315 551 q 293 536 293 551 q 303 518 293 529 q 311 508 310 511 q 310 503 313 506 q 289 474 307 499 q 250 419 271 449 q 212 367 229 390 q 193 342 194 343 q 191 349 192 340 q 190 383 190 357 q 190 459 190 410 q 190 588 190 508 l 190 839 q 203 842 190 842 q 226 860 226 843 q 206 876 226 876 q 180 875 201 876 q 132 872 158 874 q 82 869 106 871 q 51 867 58 867 q 33 860 39 867 "},"l":{"ha":401,"x_min":19,"x_max":374,"o":"m 347 -10 q 356 -12 353 -12 q 368 -7 363 -12 l 374 -3 l 374 35 q 373 62 374 50 q 372 76 372 74 q 356 92 368 92 q 339 69 339 92 l 338 57 l 304 57 q 272 55 290 56 q 239 54 253 54 l 207 54 l 206 254 q 205 348 206 296 q 204 455 204 400 q 204 563 204 510 q 204 658 204 617 l 203 861 l 221 861 q 240 864 229 861 q 250 878 250 867 q 235 894 250 892 l 135 894 l 39 892 l 35 888 q 35 863 19 875 q 42 859 38 860 q 58 858 47 858 l 78 858 l 78 789 q 78 735 78 775 q 80 640 79 696 q 81 515 81 583 q 82 375 82 446 q 84 213 83 279 q 85 106 85 147 q 87 47 86 65 q 88 26 88 28 q 94 19 90 21 q 121 17 99 17 q 156 17 135 17 q 211 19 178 18 q 281 22 256 21 q 319 22 306 22 q 338 21 338 22 q 339 15 339 19 q 347 -10 339 -1 "},"m":{"ha":564,"x_min":28,"x_max":542,"o":"m 39 -8 q 43 -10 42 -10 q 51 -10 44 -10 q 78 -10 58 -10 q 139 -7 99 -10 q 193 -5 174 -6 q 222 -3 213 -4 q 235 -1 232 -3 q 240 4 239 1 q 240 21 243 13 q 214 31 236 31 l 200 31 l 200 88 q 200 131 200 99 q 199 208 200 163 q 198 307 199 253 q 197 417 197 361 q 197 524 197 474 q 195 615 196 575 q 194 681 194 656 q 194 710 194 706 l 194 729 l 199 718 q 222 647 206 700 q 256 528 238 593 q 294 398 275 463 q 322 293 313 333 q 331 260 328 274 q 336 243 335 246 q 350 235 340 235 q 367 244 363 235 q 375 275 369 247 q 388 343 381 303 q 408 453 400 408 q 423 530 417 499 q 433 581 429 561 q 439 614 436 600 l 447 653 l 447 478 q 448 399 447 442 q 449 315 449 357 q 449 236 449 274 q 449 171 449 199 l 449 39 l 429 38 q 410 36 414 38 q 404 32 407 35 q 406 10 394 19 q 413 5 410 6 q 431 4 415 4 q 456 4 439 4 q 488 6 472 4 q 521 8 515 7 q 531 13 526 8 q 531 36 542 24 q 525 40 528 39 q 515 40 522 40 l 504 40 l 485 40 l 483 286 q 483 393 483 338 q 483 501 483 449 q 482 597 482 553 q 482 671 482 642 q 482 747 482 719 q 482 790 482 775 q 481 809 482 804 q 479 815 481 814 q 460 828 474 828 q 444 819 449 828 q 440 799 444 819 q 429 746 436 779 q 414 668 422 713 q 396 574 406 624 l 350 329 q 349 331 350 328 q 346 342 347 335 q 338 371 344 347 q 324 422 331 394 q 306 481 315 450 q 293 529 297 513 q 276 586 290 540 q 245 683 263 632 q 211 775 228 733 q 183 821 194 817 q 172 824 181 824 q 166 823 169 824 q 157 822 163 822 q 134 820 147 821 q 110 819 121 819 q 79 818 88 819 q 68 811 71 817 q 66 800 67 810 q 65 757 65 790 q 65 658 65 724 q 67 479 65 593 q 67 349 67 413 q 67 231 67 285 q 68 140 68 178 q 68 90 68 103 l 68 25 l 53 24 q 40 22 43 24 q 33 17 36 21 q 28 7 28 11 q 39 -8 28 -3 "},"n":{"ha":658,"x_min":22,"x_max":631,"o":"m 622 44 q 593 47 618 47 l 568 46 l 568 229 q 567 376 568 325 q 565 443 567 428 q 556 532 563 478 q 532 639 549 586 q 486 732 515 692 q 408 776 457 772 q 353 764 378 776 q 308 731 328 751 q 272 686 288 711 q 243 636 256 661 l 226 606 l 225 628 q 224 666 225 638 q 222 726 224 694 l 221 803 l 226 804 q 248 805 233 804 q 268 811 263 806 q 268 835 281 824 q 256 839 264 839 q 153 837 206 839 q 51 825 100 835 q 32 819 38 825 q 33 800 22 810 q 40 795 36 796 q 56 794 43 794 l 74 796 l 75 776 q 76 748 76 768 q 76 707 76 728 q 77 656 76 688 q 79 601 78 625 q 83 506 82 575 q 85 344 83 438 q 85 226 85 274 q 87 147 86 179 q 88 92 88 114 q 90 49 89 69 l 90 24 l 76 21 q 54 4 54 17 q 64 -10 54 -8 q 72 -10 67 -12 q 100 -7 81 -8 q 144 -4 119 -6 q 194 -1 168 -3 q 242 0 221 0 q 276 0 269 0 q 286 3 283 0 q 292 19 293 10 q 283 32 290 28 q 264 35 275 35 l 250 35 l 250 54 q 245 267 250 161 q 232 479 240 372 l 231 514 l 239 539 q 261 594 246 560 q 298 662 276 629 q 345 718 319 694 q 400 742 371 742 q 413 739 404 742 q 458 680 438 728 q 492 558 478 632 q 514 390 507 485 q 519 192 521 296 q 516 93 518 139 q 511 43 514 47 l 507 42 q 499 40 501 42 q 479 25 479 39 q 493 10 479 13 q 520 10 500 10 q 562 12 540 11 q 601 15 583 13 q 622 18 619 17 q 630 31 631 24 q 622 44 629 39 "},"o":{"ha":636,"x_min":29,"x_max":610,"o":"m 264 -8 l 263 -8 q 281 -11 271 -11 q 306 -11 292 -11 q 435 33 379 -8 q 528 136 490 75 q 585 269 565 197 q 607 404 606 340 q 595 541 610 476 q 553 657 581 606 q 485 744 525 708 q 394 796 444 781 q 373 801 382 800 q 336 801 364 801 q 300 801 308 801 q 279 796 292 800 q 179 742 222 781 q 105 652 136 703 q 56 544 74 601 q 31 433 38 488 q 29 406 29 424 q 29 369 29 388 q 29 333 29 350 q 31 306 29 315 q 110 92 47 176 q 264 -8 172 8 m 365 36 q 336 31 349 31 q 281 53 303 31 q 241 108 257 76 q 215 175 225 140 q 201 246 206 210 q 194 315 197 282 q 207 492 190 403 q 257 647 224 581 q 371 760 307 746 q 395 758 386 760 q 419 747 404 756 q 517 650 478 717 q 569 492 556 583 q 572 424 572 467 q 569 356 572 382 q 548 261 564 310 q 507 169 532 213 q 447 90 482 125 q 365 36 411 54 "},"p":{"ha":542,"x_min":28,"x_max":515,"o":"m 142 -8 q 192 -9 172 -8 q 225 -10 211 -10 q 255 -9 249 -10 q 264 -6 261 -8 q 271 8 271 -1 q 264 21 271 17 q 239 26 258 25 l 221 26 l 221 169 l 238 178 q 337 244 290 204 q 420 334 383 285 q 481 440 457 383 q 513 554 506 496 q 514 613 515 578 q 508 667 513 647 q 460 785 494 733 q 376 874 425 838 q 266 928 326 910 q 139 947 206 947 q 76 944 107 947 q 36 938 44 942 q 28 922 28 933 q 46 906 28 906 q 51 906 49 906 q 56 907 53 907 q 74 910 67 910 l 79 910 l 78 611 q 77 495 78 550 q 76 399 76 440 q 75 334 75 358 q 75 310 75 310 l 75 168 l 75 28 l 63 28 q 40 22 47 28 q 36 4 32 15 q 40 -2 38 0 q 51 -6 42 -4 q 82 -8 61 -7 q 142 -8 103 -8 m 261 233 q 243 222 253 226 q 231 214 233 217 l 221 208 l 222 556 q 222 690 222 628 q 224 800 222 753 q 224 903 224 856 q 231 901 224 903 q 249 897 239 900 q 270 890 260 893 q 286 883 281 886 q 376 797 340 857 q 425 649 411 738 q 427 621 426 640 q 428 581 428 601 q 427 540 428 560 q 425 511 426 521 q 301 261 400 340 q 283 247 294 256 q 261 233 271 239 "},"q":{"ha":667,"x_min":28,"x_max":639,"o":"m 417 -71 q 442 -74 433 -74 q 499 -58 474 -74 q 544 -19 525 -43 q 576 33 564 4 q 593 90 589 63 l 596 106 l 613 106 q 639 122 636 107 q 633 135 639 129 l 628 140 l 582 140 q 533 138 542 140 q 524 122 524 135 q 547 107 524 107 l 560 106 l 558 96 q 549 61 557 85 q 533 26 540 38 q 524 12 531 21 q 510 -6 518 3 q 492 -22 501 -15 q 476 -29 483 -29 l 472 -29 q 419 106 435 -22 q 418 141 418 119 q 419 206 418 163 q 422 321 419 249 q 428 510 424 393 q 432 626 431 571 q 435 724 433 682 q 438 791 438 765 q 439 818 439 817 l 439 828 l 450 826 l 456 826 q 472 836 468 826 q 465 857 478 850 q 433 865 456 863 q 385 868 410 868 q 264 846 322 868 q 158 785 206 824 q 78 693 111 746 q 33 578 46 640 q 28 515 28 554 q 32 456 28 476 q 114 301 51 361 q 268 221 176 240 l 274 219 l 275 175 q 284 101 276 140 q 308 26 292 61 q 351 -36 325 -10 q 417 -71 378 -62 m 276 272 q 271 256 276 256 q 263 257 268 256 q 250 261 258 258 q 187 290 210 274 q 151 332 164 306 q 128 415 135 367 q 124 517 121 464 q 138 623 126 569 q 171 719 150 676 q 203 769 188 753 q 242 799 218 786 q 283 814 282 817 q 283 793 283 814 q 283 737 283 772 q 283 653 283 701 q 281 551 282 606 q 278 448 279 497 q 277 361 278 399 q 276 300 276 324 q 276 272 276 276 "},"r":{"ha":594,"x_min":28,"x_max":568,"o":"m 76 -1 q 83 -6 79 -4 q 99 -7 88 -7 q 135 -6 111 -7 q 201 -1 158 -4 q 256 1 236 0 q 284 4 275 3 q 296 8 293 6 q 300 15 299 11 q 300 26 303 19 q 288 36 294 35 q 274 38 282 38 l 265 38 l 265 93 l 264 150 l 279 165 q 294 178 290 176 q 306 182 297 181 q 315 183 310 183 q 336 167 331 183 q 344 106 342 150 q 360 35 347 65 q 424 4 372 4 q 469 13 450 4 q 507 42 488 22 l 519 53 l 531 44 q 550 36 540 36 q 565 45 561 36 q 561 63 568 54 q 544 76 557 67 q 517 96 532 86 q 490 113 503 106 q 474 121 478 121 q 458 106 458 121 q 481 79 458 94 q 487 71 488 74 q 474 58 486 68 q 449 43 458 47 q 425 39 439 39 q 404 42 414 39 q 388 56 394 46 q 379 110 379 68 q 331 214 379 201 q 324 219 324 215 q 338 238 328 224 q 424 410 392 315 q 456 600 456 506 q 441 716 456 658 q 395 820 426 774 q 315 896 364 867 q 200 925 267 925 q 53 885 129 925 q 28 860 28 872 q 33 849 28 854 q 44 844 39 844 q 55 848 46 844 q 75 857 64 851 l 101 871 l 103 832 q 103 793 103 824 q 105 717 104 763 q 106 615 106 672 q 107 497 107 558 q 108 377 107 438 q 109 265 108 317 q 110 173 110 213 q 111 115 111 133 l 113 28 l 101 28 q 74 18 79 28 q 76 -1 69 6 m 282 224 q 267 204 274 211 l 263 199 l 263 225 q 262 260 263 231 q 260 335 261 289 q 259 441 260 382 q 258 565 258 500 q 256 688 257 631 q 255 788 256 746 q 254 856 254 831 q 254 882 254 882 q 267 879 256 883 q 290 868 279 875 q 340 806 318 854 q 372 690 363 757 q 378 565 381 631 q 365 438 376 500 q 332 320 353 375 q 282 224 311 265 "},"s":{"ha":500,"x_min":22,"x_max":479,"o":"m 190 -8 q 215 -10 199 -10 q 381 71 319 -10 q 403 118 392 89 q 421 172 415 147 q 425 215 424 188 q 424 256 426 243 q 402 315 418 283 q 354 385 386 346 q 320 423 339 404 q 257 485 301 442 q 222 521 236 504 q 196 555 207 538 q 177 593 185 572 q 164 642 169 614 q 167 713 157 674 q 196 778 176 753 q 235 808 211 797 q 282 819 258 819 q 297 818 292 819 q 350 781 325 813 q 388 726 375 750 q 401 564 421 651 q 397 560 400 561 q 382 558 394 558 q 365 556 368 557 q 358 551 361 556 q 358 529 347 540 l 364 524 l 397 525 q 448 526 433 525 q 467 532 463 528 q 467 556 479 543 q 447 560 463 560 q 433 564 432 561 q 439 596 436 571 q 442 635 442 621 q 426 724 442 681 q 381 800 410 767 q 312 853 351 833 q 225 874 272 874 q 140 851 176 874 q 53 752 83 818 q 29 610 22 686 q 59 492 35 539 q 139 406 83 446 q 235 328 192 368 q 297 221 278 288 q 298 134 308 181 q 263 60 288 88 q 201 31 236 31 q 172 35 188 31 q 147 49 157 39 q 133 82 135 64 q 135 93 132 93 q 160 108 157 100 q 158 124 163 117 q 146 131 154 131 q 129 128 142 131 q 102 121 117 125 q 76 113 88 117 q 63 107 64 108 q 56 92 56 100 q 67 79 57 83 l 83 79 q 92 81 88 81 l 96 82 q 99 72 99 82 q 102 61 100 68 q 107 49 104 54 q 190 -8 131 0 "},"t":{"ha":442,"x_min":26,"x_max":417,"o":"m 207 3 q 217 1 214 1 q 224 0 221 0 q 229 1 226 0 q 236 1 232 1 q 265 13 250 4 q 312 51 289 22 q 347 101 335 79 l 351 110 q 354 113 353 111 q 358 110 357 111 q 371 101 365 108 q 383 94 378 97 q 392 89 389 90 q 397 88 393 88 q 411 97 406 88 q 410 113 417 106 q 394 125 408 115 q 362 146 379 135 q 329 166 344 157 q 311 175 314 175 q 299 168 303 175 q 299 154 294 161 q 313 142 299 150 q 325 132 325 135 q 319 119 325 129 q 306 99 314 110 q 290 81 299 89 q 275 72 282 72 q 238 115 250 72 q 223 233 226 151 q 225 425 219 315 q 227 456 226 432 q 228 506 228 481 q 231 572 229 532 q 233 642 232 611 q 236 716 235 671 q 238 793 238 761 l 239 874 l 272 872 q 301 872 293 872 q 311 875 308 872 q 320 887 318 879 q 315 900 322 894 q 299 906 310 906 q 283 906 293 906 q 263 907 272 907 l 239 908 l 240 932 q 237 962 240 949 q 214 975 233 975 q 203 974 210 975 q 185 974 196 974 q 153 973 169 974 q 131 972 138 972 l 114 972 q 106 932 106 971 l 106 906 l 92 904 q 66 903 86 904 q 42 901 46 903 q 29 892 32 899 q 33 878 26 885 l 38 872 l 104 875 l 103 844 q 101 761 101 826 q 101 615 101 696 q 102 456 101 535 q 104 331 103 376 q 106 232 106 271 q 109 167 107 193 q 113 124 111 140 q 119 96 115 108 q 154 32 131 57 q 207 3 178 7 "},"u":{"ha":578,"x_min":25,"x_max":556,"o":"m 235 -8 q 258 -11 246 -11 q 379 60 324 -12 q 471 263 435 132 l 479 292 l 478 163 l 478 33 l 458 32 q 437 29 443 32 q 428 19 431 26 q 435 0 425 7 q 456 -3 440 -3 q 476 -2 464 -3 q 507 0 489 -1 q 538 3 531 1 q 549 13 546 6 q 525 35 556 35 l 513 35 l 514 390 q 515 528 515 464 q 515 642 515 593 q 517 746 517 697 q 528 749 517 746 q 547 765 547 751 q 542 777 547 772 q 529 782 536 782 q 508 781 525 782 q 472 779 490 781 q 438 776 453 778 q 419 775 422 775 q 406 764 410 772 q 410 747 403 756 q 417 744 413 744 q 439 743 421 743 l 464 743 l 465 738 q 470 692 468 725 q 475 626 472 658 q 469 442 479 533 q 436 271 458 350 q 383 132 414 192 q 315 44 353 72 q 303 36 307 38 q 292 35 299 35 q 256 67 271 35 q 229 139 240 99 q 212 217 218 179 q 204 269 206 256 q 192 483 192 368 q 204 707 192 599 q 210 740 208 738 q 226 744 211 743 q 254 757 251 746 q 253 769 257 764 q 243 778 250 775 q 200 778 231 778 q 137 776 169 778 q 76 774 104 775 q 40 771 49 774 q 31 761 32 767 q 33 742 25 751 q 40 738 36 739 q 57 738 44 738 q 73 738 69 738 q 75 735 76 738 q 68 701 75 729 q 50 501 51 601 q 61 311 49 400 q 100 151 74 222 q 165 36 126 79 q 198 8 179 21 q 235 -8 217 -4 "},"v":{"ha":579,"x_min":28,"x_max":558,"o":"m 272 -8 q 283 -11 278 -11 q 291 -10 286 -11 q 303 -10 296 -10 q 335 -7 326 -10 q 347 3 344 -4 q 360 51 350 6 q 383 160 369 97 q 400 235 390 190 q 420 329 410 279 q 441 430 431 379 q 461 525 451 481 l 507 740 l 524 740 q 539 742 535 742 q 546 746 543 743 q 547 771 558 758 q 542 774 544 774 q 529 775 540 775 q 508 775 524 775 q 477 774 493 775 q 449 773 461 774 q 433 769 436 772 q 426 756 426 765 q 433 743 426 747 q 454 739 435 742 q 471 736 471 739 q 467 716 471 736 q 455 661 463 696 q 438 581 447 626 q 417 483 428 535 q 395 383 406 432 q 376 293 385 333 q 361 225 367 253 q 353 189 356 197 q 346 156 349 167 q 343 149 343 146 q 337 172 343 149 q 320 236 331 196 q 297 330 310 276 q 269 443 285 383 q 242 558 256 504 q 219 651 229 611 q 203 715 210 692 q 197 739 197 739 q 199 743 197 742 q 214 746 201 744 q 233 749 231 746 q 242 764 242 754 q 228 779 242 776 q 187 779 217 779 q 124 778 157 779 q 65 776 92 778 q 35 771 39 774 q 28 759 29 767 q 33 746 28 751 q 53 742 39 742 l 64 742 q 68 740 67 740 q 97 632 82 690 q 128 515 111 582 q 165 372 146 449 q 203 230 185 297 q 234 112 221 163 q 256 31 247 61 q 264 0 264 1 q 272 -8 267 -6 "},"w":{"ha":692,"x_min":28,"x_max":664,"o":"m 272 -4 q 281 -6 275 -6 q 303 -6 288 -6 q 335 -1 326 -4 q 347 8 344 1 q 353 33 347 10 q 367 90 358 56 q 384 165 375 125 q 401 240 393 204 q 413 300 408 275 q 418 329 418 325 q 426 285 419 329 q 444 175 433 240 q 464 62 456 110 q 472 11 472 14 q 492 -6 476 -6 q 508 7 504 -6 q 513 38 508 8 q 524 116 517 67 q 540 231 531 165 q 558 372 549 297 q 578 513 569 447 q 594 629 588 579 q 606 709 601 679 q 610 740 610 739 l 611 747 l 632 747 q 655 751 650 749 q 663 763 660 753 q 657 776 664 769 l 651 782 l 599 782 q 553 780 561 781 q 543 776 546 779 q 544 753 531 764 q 563 747 550 747 q 574 743 574 747 q 567 693 574 740 q 552 578 561 646 q 532 431 543 510 q 511 285 521 353 q 495 174 501 218 q 489 131 489 131 q 481 177 488 133 q 463 283 474 221 q 444 390 451 346 q 435 438 436 435 q 417 447 429 450 q 404 432 404 442 q 400 408 404 431 q 389 355 396 386 q 374 288 382 324 q 360 222 367 253 q 348 172 353 192 q 343 153 343 153 q 337 178 343 154 q 320 242 331 201 q 297 335 310 282 q 269 449 285 389 q 242 563 256 510 q 219 656 229 615 q 203 719 210 696 q 197 744 197 743 q 199 748 197 747 q 214 750 201 749 q 233 754 232 753 q 242 769 242 760 q 228 785 242 782 q 187 785 217 785 q 124 784 157 785 q 65 781 92 783 q 35 776 39 779 q 28 765 29 772 q 33 751 28 757 q 53 746 40 746 l 68 746 q 76 717 68 746 q 98 638 85 688 q 128 520 111 588 q 165 378 146 453 q 203 234 185 301 q 234 117 221 167 q 256 37 247 67 q 264 6 264 7 q 267 1 265 3 q 272 -4 269 -1 "},"x":{"ha":542,"x_min":24,"x_max":515,"o":"m 43 -8 q 48 -12 46 -11 q 61 -12 50 -12 q 81 -12 67 -12 q 111 -10 96 -11 q 140 -9 126 -10 q 154 -7 153 -8 q 164 1 163 -4 q 160 21 167 11 q 153 24 157 24 q 138 25 150 25 q 119 26 119 25 q 128 47 119 26 q 151 98 138 68 q 180 163 164 128 q 210 227 196 197 q 233 276 224 257 q 242 296 242 296 q 256 258 249 278 q 290 165 271 219 q 327 62 318 89 q 335 33 336 35 q 325 31 332 31 q 310 15 313 29 q 314 3 308 8 q 325 -4 321 -4 q 354 0 328 -4 q 413 10 381 4 q 473 20 446 15 q 501 26 500 25 q 513 38 510 29 q 508 54 515 47 q 499 60 503 60 q 494 59 496 60 q 489 58 492 58 l 474 58 l 406 247 q 378 322 392 286 q 355 385 365 357 q 338 433 344 414 q 329 457 331 453 l 322 478 l 389 629 q 438 737 417 692 q 460 785 458 782 q 465 790 463 789 q 483 792 468 790 q 501 792 497 792 q 508 796 504 793 q 513 809 514 801 q 507 822 513 817 q 494 825 503 825 q 451 826 486 825 l 401 826 l 397 821 q 393 801 388 814 q 414 793 396 793 l 421 793 q 424 792 422 792 q 415 770 424 790 q 392 721 406 750 q 364 658 379 692 q 335 594 349 624 q 312 547 321 565 q 303 528 303 528 q 290 565 299 539 q 269 624 281 592 q 244 692 257 657 q 221 756 232 726 q 203 804 210 785 q 196 824 196 824 q 203 828 196 825 q 224 847 224 832 q 207 863 224 860 q 172 858 199 863 q 115 847 144 853 q 61 835 85 840 q 35 826 38 829 q 30 807 24 817 q 51 799 36 797 l 60 800 l 142 575 q 173 488 158 529 q 199 415 188 446 q 217 365 211 383 q 224 346 224 347 q 202 297 224 343 q 151 183 181 250 l 81 24 l 65 22 q 47 19 51 21 q 40 13 43 18 q 43 -8 35 3 "},"y":{"ha":489,"x_min":28,"x_max":461,"o":"m 247 -28 q 259 -30 254 -29 q 271 -31 264 -31 q 347 -11 313 -31 q 418 99 399 14 q 432 213 425 135 q 444 389 439 292 q 447 460 446 410 q 447 566 447 510 q 447 672 447 622 q 444 740 446 721 l 443 771 l 450 774 q 460 785 460 776 q 453 801 461 794 q 439 804 450 804 q 403 803 426 804 q 356 801 379 803 q 310 798 332 800 q 281 793 289 796 q 271 779 271 790 q 275 771 271 775 q 292 767 278 767 l 303 767 l 306 735 l 306 579 l 306 456 l 296 443 q 260 405 283 422 q 211 388 236 388 q 175 397 193 388 q 130 448 146 411 q 107 554 114 485 q 106 596 107 564 q 105 663 106 628 q 104 726 104 697 q 104 758 104 754 l 106 765 l 125 767 q 150 772 146 768 q 147 796 164 786 q 142 798 144 797 q 131 799 139 799 q 117 798 125 799 q 94 797 108 797 q 45 793 57 794 q 31 788 33 792 q 28 777 28 783 q 32 768 29 771 q 39 765 35 765 q 56 765 43 765 l 75 767 l 74 740 q 72 692 72 722 q 72 633 72 663 q 73 576 72 603 q 75 538 74 550 q 87 475 79 507 q 110 416 94 443 q 149 372 125 389 q 211 354 174 354 q 289 385 251 354 l 303 397 l 304 278 q 304 121 306 160 q 297 56 301 72 q 281 26 293 40 q 265 14 274 19 q 246 8 257 8 q 209 30 225 8 q 188 68 193 51 q 183 84 185 76 q 181 94 181 92 l 179 101 l 189 103 q 203 106 200 106 q 213 113 210 106 q 214 128 217 119 q 201 136 213 136 q 180 134 194 136 q 151 128 165 132 q 125 119 136 125 q 114 107 114 114 q 119 96 114 99 q 132 93 125 93 q 138 94 135 93 q 143 94 142 94 q 147 93 147 97 q 155 63 147 88 q 167 31 163 39 q 201 -8 178 8 q 247 -28 224 -24 "},"z":{"ha":431,"x_min":28,"x_max":403,"o":"m 368 -62 q 382 -68 374 -68 q 395 -59 393 -67 q 400 -17 397 -51 q 401 26 403 18 q 392 39 400 35 q 383 40 389 40 q 368 21 372 40 q 365 10 368 10 q 342 9 365 10 q 288 8 318 8 q 226 6 257 7 q 181 6 196 6 l 169 6 q 168 5 169 6 q 169 12 167 4 q 176 42 171 19 q 194 111 182 64 q 225 235 206 158 q 274 429 244 313 q 313 587 294 513 q 345 717 332 661 q 367 806 358 774 q 375 840 375 839 q 369 853 375 847 q 360 856 367 856 q 326 858 354 857 q 288 860 311 860 q 247 860 264 860 q 202 860 229 860 q 154 861 175 861 l 101 863 l 101 871 q 83 888 100 888 q 72 883 76 888 q 67 870 68 879 q 64 833 65 861 l 63 806 l 68 800 q 79 794 74 794 q 97 821 97 794 l 97 828 l 163 826 q 209 825 190 825 q 229 825 228 825 q 222 792 229 825 q 200 701 214 758 q 168 569 186 644 q 129 408 150 494 q 90 246 108 322 q 58 112 71 169 q 36 20 44 54 q 28 -15 28 -14 q 33 -26 28 -21 l 39 -32 l 122 -31 q 205 -30 157 -31 q 285 -28 253 -29 l 365 -26 l 364 -42 q 368 -62 364 -58 "},"!":{"ha":217,"x_min":28,"x_max":189,"o":"m 132 118 q 127 119 129 118 q 124 119 125 119 q 117 117 119 119 q 107 113 114 115 q 75 81 86 104 q 68 54 69 72 q 76 20 68 36 q 103 -3 83 4 q 112 -5 108 -4 q 118 -6 115 -6 q 161 16 144 -6 q 178 63 178 38 q 132 118 178 113 m 186 867 q 182 874 185 871 q 172 878 179 876 q 151 879 165 879 q 110 879 136 879 q 47 878 60 879 q 31 869 35 876 q 28 863 29 867 q 28 849 28 860 q 31 819 29 839 q 36 765 32 799 q 42 700 39 738 q 47 636 46 663 q 61 456 54 544 q 71 275 68 367 q 73 234 72 249 q 76 213 74 219 q 81 203 78 206 q 92 199 85 201 q 117 197 96 197 q 136 197 126 197 q 150 200 146 197 q 163 210 161 203 q 168 250 165 218 q 169 285 168 265 q 172 321 171 306 q 177 398 175 358 q 181 491 179 438 q 185 616 183 544 q 188 788 186 688 q 189 849 189 836 q 186 867 189 861 "},"\"":{"ha":306,"x_min":25,"x_max":278,"o":"m 110 879 q 97 884 103 883 q 72 885 92 885 q 39 882 47 885 q 31 864 25 878 q 37 856 33 857 q 51 854 40 854 q 56 855 54 854 q 61 856 58 856 q 65 851 64 856 q 43 781 65 836 q 30 740 32 753 q 31 721 28 728 q 56 699 40 703 q 90 694 72 694 q 100 696 99 694 q 108 706 103 696 q 119 728 113 715 q 131 754 125 740 q 140 776 138 768 q 144 792 143 786 q 146 814 146 799 q 139 853 146 838 q 110 879 132 868 m 274 833 q 243 880 265 861 q 190 899 221 899 q 169 885 169 899 q 189 869 169 872 l 197 868 l 197 857 q 188 826 194 846 q 165 776 181 807 q 151 744 154 753 q 147 729 147 735 q 165 701 147 710 q 199 692 182 692 q 243 714 228 692 q 265 761 258 736 q 276 803 275 789 q 274 833 278 818 "},"#":{"ha":426,"x_min":25,"x_max":401,"o":"m 43 350 q 28 340 32 347 q 32 326 25 333 q 36 323 35 324 q 46 322 38 322 l 74 322 l 107 322 l 108 318 q 108 284 108 308 q 110 235 108 260 q 113 189 111 210 q 115 164 114 168 q 123 158 118 158 q 143 156 128 157 q 163 154 156 154 q 176 154 171 154 q 188 156 185 154 q 194 160 190 157 l 201 165 l 203 243 q 204 298 204 275 q 204 322 204 321 q 212 324 204 324 q 243 324 219 324 l 282 324 l 282 322 l 283 268 q 284 223 283 246 q 286 189 285 200 q 288 165 288 169 q 293 158 289 161 q 304 153 301 153 q 315 158 310 153 l 319 164 l 318 207 q 317 249 318 226 q 317 286 317 271 l 315 322 l 349 322 q 379 323 374 322 q 389 326 385 324 q 389 350 401 339 q 378 354 386 353 q 319 357 369 356 q 315 367 317 357 q 313 418 314 376 l 311 457 l 346 457 l 363 457 q 392 461 386 457 q 397 476 399 465 q 388 487 396 485 q 347 490 379 489 q 308 494 308 492 q 308 520 308 501 q 306 560 307 539 q 304 597 306 581 q 300 615 303 614 q 290 619 296 619 q 281 614 285 619 l 275 610 l 275 492 l 251 490 q 230 490 240 490 q 215 489 219 489 l 203 489 l 203 610 l 199 615 q 191 620 194 619 q 171 621 188 621 q 158 622 164 622 q 147 622 153 622 q 115 617 121 622 q 109 596 111 611 q 106 536 107 581 l 106 482 l 78 481 q 47 475 54 478 q 40 463 40 472 q 44 451 39 456 q 56 449 50 449 q 64 449 58 449 q 76 450 69 450 q 96 451 88 451 q 106 451 104 451 l 106 403 l 107 354 l 78 353 q 43 350 49 353 m 281 357 l 204 357 l 206 406 l 206 456 l 276 457 l 278 453 q 278 436 278 450 q 279 403 279 422 l 281 357 "},"$":{"ha":428,"x_min":25,"x_max":386,"o":"m 169 -110 q 181 -115 174 -115 q 194 -105 192 -115 q 197 -86 197 -94 q 198 -69 197 -81 q 199 -46 199 -57 q 201 -25 200 -35 q 201 -12 201 -15 q 211 -8 203 -8 q 247 -1 224 -8 q 285 18 269 7 q 351 93 325 46 q 383 188 378 140 q 385 215 385 206 q 383 236 386 224 q 365 305 379 272 q 311 390 350 338 q 295 413 304 399 q 279 439 286 428 q 261 468 272 450 q 240 500 250 486 q 222 528 231 514 q 210 547 214 542 q 201 563 207 554 q 190 579 196 572 q 176 606 186 586 q 157 644 167 625 l 133 690 l 133 710 q 146 774 131 744 q 175 806 154 790 q 215 821 196 821 q 242 810 231 821 q 258 793 250 803 q 265 779 265 783 q 254 771 265 779 q 240 760 243 764 q 236 750 236 757 q 249 736 236 736 q 279 750 254 736 q 301 760 290 756 q 317 767 311 765 q 325 771 321 769 q 331 775 329 772 q 328 793 336 785 q 317 799 324 799 q 301 794 310 799 l 292 790 l 288 801 q 265 829 283 811 q 236 853 250 843 q 201 867 222 863 l 192 869 l 190 899 l 190 942 q 188 955 190 949 q 176 961 185 961 q 165 957 169 961 q 162 947 163 953 q 160 911 161 942 l 160 871 l 153 869 q 86 833 115 863 q 42 757 57 803 q 30 648 25 708 q 63 529 35 588 q 83 491 69 513 q 125 425 96 469 q 172 350 153 382 q 205 292 192 318 q 228 245 218 267 q 244 201 238 224 q 256 142 253 174 q 253 92 258 111 q 226 47 244 64 q 185 31 208 31 q 154 39 169 31 q 136 63 139 47 q 132 81 131 78 q 147 86 133 83 q 167 94 163 92 q 174 101 171 96 q 172 115 176 108 q 160 122 167 122 q 145 118 158 122 q 116 109 132 114 q 87 100 100 104 q 71 94 74 96 q 64 78 61 89 q 78 68 68 68 q 94 71 81 68 q 98 71 97 72 q 101 61 99 69 q 160 0 110 18 q 171 -7 171 -4 q 170 -17 171 -8 q 168 -37 169 -26 q 166 -63 167 -49 q 165 -85 165 -78 q 166 -103 165 -100 q 169 -110 167 -107 "},"%":{"ha":528,"x_min":26,"x_max":501,"o":"m 88 676 q 103 675 90 675 q 150 690 129 675 q 182 728 171 704 q 186 810 204 771 q 157 844 175 832 q 119 856 139 856 q 106 854 110 856 q 58 812 74 842 q 43 750 43 782 q 51 705 43 724 q 88 676 60 686 m 101 779 q 114 804 107 796 q 139 813 121 813 q 151 804 146 811 q 160 768 163 789 q 143 731 157 753 q 111 708 129 708 q 101 714 107 708 q 94 741 94 722 q 101 779 94 760 m 382 153 q 342 165 365 165 q 326 165 331 165 q 313 158 322 164 q 272 117 286 143 q 260 58 257 90 q 301 -3 263 10 q 322 -6 307 -6 q 343 -3 339 -6 q 396 49 374 7 q 406 108 411 78 q 382 153 401 138 m 368 68 q 347 39 356 46 q 331 36 342 36 q 318 67 318 36 q 324 104 318 86 q 338 129 329 122 q 346 132 343 132 q 369 117 361 132 q 374 94 374 108 q 368 68 374 79 m 499 783 q 487 797 497 789 q 463 814 476 806 q 437 828 450 822 q 418 833 424 833 q 406 829 410 833 q 391 803 403 824 q 365 755 379 782 q 335 699 350 728 q 308 649 319 669 q 281 594 293 618 q 253 535 269 569 q 212 448 236 500 q 147 311 188 396 q 84 176 107 226 q 49 100 61 126 q 33 65 36 74 q 29 54 29 57 q 32 40 26 44 q 57 24 38 35 q 87 7 79 11 q 100 1 94 3 q 110 0 103 0 q 122 4 118 0 q 141 37 125 7 q 181 115 157 67 q 235 222 204 163 q 296 344 265 282 q 355 465 326 406 q 406 569 383 524 q 481 731 461 685 q 499 783 501 778 "},"&":{"ha":525,"x_min":15,"x_max":497,"o":"m 368 -10 q 392 -10 375 -10 q 426 -11 410 -10 l 468 -11 l 472 -7 q 475 14 482 3 q 451 21 469 21 l 440 21 l 432 21 q 418 24 422 21 q 404 40 414 28 q 392 57 401 46 q 374 79 383 68 l 353 106 l 371 125 q 402 160 386 142 q 435 200 418 178 q 446 215 442 211 q 451 222 449 219 q 456 219 453 221 q 464 214 461 217 q 485 206 475 206 q 497 221 497 206 q 485 236 497 225 q 458 259 474 247 q 429 279 443 271 q 410 288 415 288 q 401 283 406 288 q 396 275 396 279 q 411 256 396 268 q 424 243 424 246 q 406 219 424 242 q 376 182 389 196 q 349 149 365 167 q 331 133 332 132 q 324 144 328 139 q 315 155 319 149 q 304 168 311 161 q 260 230 281 201 q 225 282 240 258 l 210 307 l 228 344 q 291 468 265 415 q 324 539 317 521 q 351 700 357 624 q 304 815 346 776 q 287 828 297 824 q 256 840 276 833 q 235 844 243 843 q 213 847 228 846 q 89 775 131 847 q 114 422 15 646 l 125 397 l 103 353 q 51 238 75 297 q 28 115 28 178 q 28 84 28 92 q 32 67 29 76 q 133 -8 58 -8 q 229 17 182 -8 q 313 71 276 42 l 329 83 l 346 63 q 361 45 353 54 q 372 32 369 36 l 381 21 l 365 21 q 340 11 343 19 q 346 -7 335 -1 q 368 -10 351 -10 m 189 38 q 174 36 183 36 q 147 47 158 36 q 142 69 143 53 q 144 108 142 86 q 153 156 147 131 q 168 207 160 182 q 181 244 175 226 q 190 267 188 263 q 197 263 192 269 q 217 233 201 257 q 244 194 228 218 q 275 153 261 171 l 307 110 l 300 103 q 240 61 275 82 q 189 38 206 40 m 185 511 q 158 460 169 482 q 146 438 147 439 q 142 441 144 436 q 132 465 139 446 q 102 561 111 518 q 93 646 93 604 q 100 715 92 686 q 128 771 108 744 q 196 813 157 813 q 231 801 215 813 q 261 700 274 769 q 239 627 256 668 q 185 511 222 586 "},"(":{"ha":339,"x_min":18,"x_max":313,"o":"m 203 -17 q 210 -18 206 -18 q 229 -12 218 -18 q 250 3 247 -4 q 243 25 253 11 q 222 63 233 38 q 199 118 210 89 q 179 174 188 147 q 168 218 171 201 q 155 431 146 318 q 201 656 164 543 q 238 740 218 701 q 289 821 258 779 q 308 849 304 843 q 310 863 313 856 q 292 885 308 869 q 269 903 276 900 q 266 903 267 903 q 264 904 265 904 q 229 886 257 904 q 98 731 146 826 q 36 535 50 635 q 40 301 18 411 q 124 88 61 192 q 145 55 133 72 q 169 22 157 38 q 190 -4 181 7 q 203 -17 199 -15 "},"'":{"ha":199,"x_min":25,"x_max":178,"o":"m 82 707 q 92 704 88 706 q 99 703 96 703 q 117 712 107 703 q 135 733 126 721 q 149 757 143 744 q 158 776 156 769 q 166 853 178 821 q 115 894 154 886 q 90 897 101 897 q 54 894 72 897 q 32 885 36 890 q 33 867 25 875 q 43 863 38 863 q 53 863 47 863 q 67 865 58 864 q 88 867 74 867 q 81 847 89 865 q 65 814 72 829 q 44 772 47 781 q 39 751 40 763 q 42 733 39 736 q 58 719 44 728 q 82 707 71 711 "},")":{"ha":354,"x_min":28,"x_max":322,"o":"m 68 -22 q 78 -24 72 -24 q 104 -11 86 -24 q 181 58 147 18 q 240 145 215 99 q 281 243 265 192 q 304 344 297 294 q 301 578 322 468 q 217 793 279 688 q 194 828 207 810 q 170 860 182 846 q 149 885 158 875 q 136 897 140 896 q 131 899 133 899 q 121 897 125 899 q 102 887 111 893 q 90 876 93 881 q 99 854 89 868 q 121 813 110 839 q 142 760 132 788 q 160 706 153 732 q 172 661 168 679 q 185 449 194 561 q 139 225 176 338 q 102 140 122 178 q 51 60 82 101 q 32 31 36 38 q 29 18 28 25 q 47 -4 32 11 q 68 -22 61 -19 "},"*":{"ha":349,"x_min":28,"x_max":321,"o":"m 107 607 q 126 604 118 604 q 138 607 135 604 q 140 610 139 607 q 143 619 140 613 q 151 640 146 626 q 164 679 156 654 q 172 703 169 693 l 176 713 q 185 699 178 711 q 203 671 192 688 q 227 635 221 643 q 240 626 233 626 q 249 628 246 626 q 268 642 265 632 q 257 681 274 653 q 231 722 243 703 q 221 743 219 742 q 232 744 226 743 q 244 745 238 744 q 258 746 251 746 q 301 751 290 749 q 318 760 313 753 q 320 776 321 767 q 315 792 319 786 q 303 801 310 799 q 278 803 297 803 l 253 803 q 235 802 243 803 q 221 801 228 801 q 211 803 214 801 q 207 803 208 803 q 215 828 207 804 q 229 863 224 851 q 229 889 236 882 q 204 899 219 899 q 192 894 196 899 q 185 882 189 892 q 176 861 181 872 q 164 836 167 836 q 149 860 161 836 q 132 888 136 883 q 122 894 128 893 q 100 889 113 894 q 88 872 88 883 q 99 850 88 869 q 125 804 110 831 l 129 797 l 99 794 q 74 792 86 793 q 57 792 61 792 q 42 789 44 792 q 29 769 31 782 q 35 746 28 757 q 58 736 43 736 q 66 736 61 736 q 78 738 71 736 q 97 740 86 739 q 114 740 107 740 l 128 740 l 110 685 q 97 644 103 663 q 92 624 92 626 q 107 607 92 614 "},",":{"ha":167,"x_min":28,"x_max":139,"o":"m 68 -65 q 86 -68 76 -68 q 100 -65 94 -68 q 114 -52 108 -60 q 126 -28 119 -44 q 139 39 139 13 q 119 81 136 63 q 76 100 103 100 q 69 99 74 100 q 60 99 65 99 q 35 93 42 96 q 28 82 29 90 q 32 71 28 78 q 42 67 36 67 q 47 67 44 67 q 54 68 50 68 l 71 69 l 71 57 q 65 29 71 47 q 51 -10 60 11 q 42 -33 44 -25 q 43 -47 40 -40 q 68 -65 46 -57 "},"+":{"ha":328,"x_min":28,"x_max":289,"o":"m 31 399 q 28 388 28 394 q 32 379 29 382 q 39 376 35 376 q 56 378 47 376 q 74 379 63 378 q 93 381 85 381 l 111 382 l 113 363 q 114 342 114 354 q 114 322 114 331 q 116 286 114 297 q 124 269 118 275 q 132 266 128 267 q 156 265 136 265 q 176 265 167 265 q 186 267 185 265 q 194 275 193 269 q 198 288 197 279 q 197 332 199 297 l 197 383 l 236 383 q 269 385 263 385 q 279 389 276 386 q 285 407 289 397 q 276 416 282 414 q 254 418 271 418 l 233 418 l 197 417 l 197 460 q 197 490 197 476 q 196 507 197 504 q 178 515 193 515 l 158 515 q 125 511 133 515 q 116 499 118 508 q 114 456 114 489 q 114 423 114 432 q 111 414 114 414 q 100 412 110 413 q 78 410 90 411 q 44 405 53 407 q 31 399 35 403 "},"-":{"ha":336,"x_min":28,"x_max":294,"o":"m 36 371 q 46 367 44 367 q 74 367 53 367 q 121 369 94 368 q 174 372 147 371 q 222 375 201 374 q 284 381 275 378 q 294 396 293 383 q 292 417 294 408 q 288 431 290 424 q 281 444 286 439 l 274 453 l 250 453 q 196 451 229 453 q 130 447 163 449 q 72 442 97 444 q 40 438 46 439 q 28 408 28 432 q 31 386 28 397 q 36 371 33 375 "},".":{"ha":169,"x_min":24,"x_max":151,"o":"m 63 -10 q 75 -11 65 -11 q 103 -6 93 -11 q 121 8 111 -1 q 136 71 151 39 q 86 101 122 99 q 82 102 83 101 q 78 103 81 103 q 44 88 57 103 q 29 33 24 64 q 63 -10 35 1 "},"/":{"ha":478,"x_min":28,"x_max":457,"o":"m 88 0 q 94 -1 89 -1 q 110 3 104 -1 q 122 22 115 8 q 138 53 125 29 q 165 104 150 76 q 221 206 197 163 q 264 288 244 250 q 301 363 283 326 q 339 442 318 399 q 388 547 371 510 q 419 615 406 583 q 431 641 425 628 q 440 661 438 654 q 439 699 457 690 q 412 703 433 701 q 374 706 390 706 q 357 699 361 706 q 349 688 354 696 q 340 671 344 681 q 323 640 335 663 q 297 593 311 617 q 269 538 290 581 q 219 440 247 496 q 159 320 190 383 q 101 203 128 257 q 54 110 74 149 q 32 64 35 71 q 30 47 28 53 q 43 31 32 40 q 67 14 53 24 q 88 0 81 4 "},":":{"ha":169,"x_min":28,"x_max":142,"o":"m 61 400 q 78 396 68 396 q 124 417 103 396 q 142 457 142 436 q 104 501 142 493 q 92 503 101 503 q 68 499 76 503 q 43 474 54 494 q 36 444 38 461 q 40 421 36 426 q 61 400 46 406 m 86 303 q 56 294 71 304 q 33 267 40 283 q 28 242 28 256 q 32 221 28 229 q 60 196 40 203 q 69 194 65 194 q 76 193 72 193 q 110 206 96 193 q 129 236 125 218 q 129 263 132 247 q 121 285 126 278 q 106 297 117 292 q 86 303 96 301 "},";":{"ha":192,"x_min":28,"x_max":165,"o":"m 90 404 q 104 401 99 401 q 146 417 128 401 q 163 453 161 428 q 151 493 165 478 q 117 510 138 510 q 72 494 89 510 q 56 449 56 478 q 90 404 54 417 m 92 300 q 75 299 86 300 q 53 294 64 297 q 35 286 43 292 q 28 274 28 281 q 39 258 28 263 q 53 261 42 258 q 65 265 64 265 q 63 237 65 250 q 56 210 60 224 q 76 139 40 156 q 89 133 82 136 q 100 129 96 131 q 111 126 108 126 q 138 157 122 126 q 154 195 150 181 q 157 228 158 210 q 142 279 157 258 q 92 300 126 300 "},"<":{"ha":358,"x_min":28,"x_max":321,"o":"m 228 301 q 285 278 278 278 q 311 300 301 278 q 311 340 321 322 q 284 366 306 351 q 236 395 263 381 q 185 422 210 410 q 150 438 161 433 q 131 444 139 442 q 122 449 124 447 q 131 456 122 451 q 153 469 135 458 q 193 496 171 481 q 233 521 215 510 q 256 533 251 532 q 265 554 269 542 q 251 563 264 563 q 244 561 247 563 q 209 541 242 560 q 139 499 176 522 q 69 457 101 476 q 35 435 38 438 q 28 417 28 428 q 40 400 29 407 q 68 383 46 396 q 118 356 90 371 q 176 326 146 342 q 228 301 206 311 "},"=":{"ha":340,"x_min":28,"x_max":299,"o":"m 46 440 q 73 441 53 440 q 119 443 93 442 q 174 445 146 444 q 221 447 201 446 q 262 451 247 450 q 283 453 276 451 q 292 459 290 456 q 293 468 293 463 q 294 478 294 474 q 292 489 293 482 q 288 506 288 500 q 281 518 288 508 l 272 525 l 250 525 q 196 523 229 525 q 130 519 163 521 q 72 514 97 517 q 40 510 46 511 q 28 481 28 506 q 31 458 28 469 q 36 443 33 447 q 46 440 39 440 m 294 357 q 292 374 292 371 q 283 385 292 376 l 276 393 l 253 393 q 199 391 232 393 q 133 387 165 389 q 74 382 100 385 q 44 376 49 379 q 31 349 31 374 q 33 324 31 340 q 49 308 36 308 q 137 310 93 308 q 225 315 181 313 q 266 318 251 317 q 288 322 281 319 q 296 327 294 324 q 297 336 297 331 q 294 357 299 344 "},">":{"ha":344,"x_min":24,"x_max":328,"o":"m 86 274 q 93 272 89 272 q 130 291 97 272 q 201 333 163 310 q 272 376 239 356 q 308 400 304 396 q 304 436 328 417 q 256 464 294 444 q 176 504 218 483 q 100 541 135 525 q 60 557 65 557 q 33 535 43 557 q 33 494 24 513 q 61 468 39 483 q 109 439 83 453 q 159 414 135 425 q 194 399 183 403 q 213 390 206 393 q 222 386 221 388 q 221 383 221 385 q 214 379 219 382 q 192 365 210 376 q 151 340 174 354 q 111 314 129 325 q 89 301 93 303 q 79 282 75 293 q 86 274 81 276 "},"?":{"ha":494,"x_min":28,"x_max":476,"o":"m 147 103 q 103 86 124 103 q 83 49 83 69 q 97 11 83 28 q 108 1 103 6 q 124 -6 114 -3 q 136 -7 126 -7 q 158 -3 153 -7 q 188 44 183 11 q 178 86 190 69 q 147 103 167 103 m 457 725 q 385 834 439 793 q 263 875 332 875 q 146 835 201 875 q 71 738 90 796 l 69 733 l 56 736 q 42 740 46 740 q 40 740 40 740 q 38 739 39 739 q 28 726 28 735 q 38 713 28 717 q 55 706 42 711 q 83 697 68 701 q 110 690 97 693 q 124 686 122 686 q 135 695 132 686 q 132 711 139 704 q 124 715 129 713 q 114 719 119 717 q 100 725 103 722 q 109 747 97 728 q 132 779 121 767 q 201 813 154 806 q 208 813 204 813 q 215 814 213 814 q 260 803 240 814 q 293 774 279 792 q 315 735 307 757 q 328 690 324 713 q 331 615 333 660 q 322 535 329 571 q 258 413 307 463 q 146 332 208 364 q 117 314 125 321 q 106 297 108 307 q 103 281 104 294 q 103 252 103 268 q 103 220 103 236 q 104 194 104 204 q 108 174 107 179 q 115 165 110 168 q 124 164 118 164 q 133 168 129 164 l 139 172 l 138 196 l 138 253 l 138 286 l 149 293 q 167 301 154 296 q 196 311 181 306 q 283 352 240 326 q 362 412 326 378 q 422 488 397 446 q 457 578 447 531 q 457 725 476 656 "},"_":{"ha":436,"x_min":28,"x_max":408,"o":"m 40 -4 q 56 -10 46 -10 q 94 -9 65 -10 q 160 -7 124 -8 q 236 -4 197 -6 q 304 -1 275 -3 q 363 1 342 0 q 392 5 383 3 q 403 10 401 7 q 407 21 406 14 q 404 36 408 29 q 401 43 403 39 q 399 51 400 47 q 396 58 397 54 q 392 65 394 63 q 377 74 385 72 q 344 76 369 76 q 263 74 313 76 q 165 69 213 72 q 82 64 118 67 q 42 58 46 61 q 31 47 35 56 q 29 28 28 38 q 40 -4 32 3 "},"^":{"ha":294,"x_min":28,"x_max":265,"o":"m 239 668 q 249 664 243 664 q 265 676 263 664 q 259 700 265 679 q 244 749 253 721 q 225 807 235 778 q 208 853 215 836 q 194 883 199 876 q 182 893 189 890 q 151 896 174 896 q 125 893 131 896 q 106 860 122 892 q 56 757 89 828 q 33 706 38 718 q 29 688 28 693 q 44 675 32 678 q 64 672 56 672 q 103 683 85 672 q 115 701 106 686 q 134 738 124 717 q 156 783 144 760 q 175 826 167 807 q 182 836 181 836 q 185 826 182 835 q 192 804 189 817 q 225 703 214 733 q 239 668 236 672 "},"]":{"ha":372,"x_min":28,"x_max":317,"o":"m 38 -36 q 46 -39 43 -39 q 56 -35 51 -39 q 60 -17 60 -32 l 60 -1 l 82 -3 q 105 -4 90 -3 q 131 -7 119 -6 q 159 -8 144 -8 q 189 -8 174 -8 q 215 -8 199 -8 q 249 -5 232 -7 q 281 2 265 -3 q 301 15 296 7 q 308 28 306 22 q 311 49 310 33 q 313 98 313 65 q 314 189 314 131 q 314 294 314 247 q 315 349 314 342 q 316 395 317 356 q 315 490 315 435 q 313 607 314 544 q 311 724 313 669 q 309 818 310 779 q 307 863 308 857 q 264 914 301 900 q 247 917 256 917 q 214 918 238 918 l 192 918 q 135 917 164 918 q 100 914 106 917 q 97 918 97 913 q 79 949 94 949 q 68 943 74 949 q 65 926 64 939 q 65 908 65 921 q 66 882 65 896 q 68 857 67 868 q 71 843 69 846 q 81 839 75 839 q 96 853 93 839 q 97 860 96 856 q 97 869 97 865 q 98 878 97 876 q 106 881 99 879 q 150 884 128 883 q 194 885 172 885 q 197 876 197 885 q 199 841 199 874 q 201 760 200 808 q 202 657 201 713 q 203 551 203 601 q 203 467 203 518 q 202 359 203 415 q 201 246 201 303 q 201 142 201 189 q 199 66 200 96 q 199 33 199 36 l 197 22 l 161 25 q 126 26 146 25 q 93 28 106 26 l 61 28 l 60 50 q 58 69 58 65 q 54 76 57 74 q 43 81 50 81 q 32 76 36 81 q 28 65 29 72 q 29 22 28 58 q 32 -24 31 -14 q 38 -36 33 -33 "},"\\":{"ha":478,"x_min":21,"x_max":450,"o":"m 368 63 q 381 58 372 58 q 390 60 388 58 q 411 72 397 63 q 433 89 425 82 q 448 106 446 100 q 446 124 450 113 q 424 169 443 131 q 377 263 404 208 q 319 380 350 317 q 259 499 288 443 q 209 598 231 556 q 181 653 188 640 q 155 699 167 676 q 138 731 143 722 q 128 748 133 740 q 121 758 124 756 q 104 765 117 765 q 66 763 88 765 q 39 758 44 761 q 38 721 21 750 q 47 701 40 714 q 58 675 53 688 q 178 417 114 543 q 311 164 243 290 q 340 113 326 136 q 356 82 353 89 q 362 69 358 75 q 368 63 365 64 "},"[":{"ha":344,"x_min":29,"x_max":317,"o":"m 256 -32 q 265 -36 260 -36 q 276 -32 272 -36 q 279 -14 281 -26 q 278 3 279 -10 q 278 32 278 17 q 276 61 278 56 q 272 69 275 67 q 264 72 267 72 q 249 58 251 72 q 248 51 249 56 q 247 42 247 46 q 239 32 247 33 q 222 29 233 31 q 196 27 210 28 q 169 26 182 26 q 150 26 157 26 q 146 35 149 29 q 145 70 146 38 q 144 151 144 103 q 142 254 143 199 q 142 360 142 310 q 142 445 142 394 q 142 553 142 496 q 143 667 143 610 q 144 769 143 724 q 145 845 144 815 q 146 878 146 875 l 147 889 l 183 888 q 218 885 199 886 q 251 885 238 885 l 283 883 l 285 861 q 287 843 286 847 q 290 836 288 839 q 301 831 296 831 q 313 836 307 831 q 316 847 315 839 q 315 889 317 854 q 313 925 314 911 q 311 942 313 939 q 297 951 307 951 q 286 943 288 951 q 285 928 285 935 l 285 914 l 263 915 q 240 916 254 915 q 214 918 225 917 q 184 920 199 919 q 156 921 169 921 q 88 917 113 921 q 57 908 65 913 q 43 897 49 904 q 37 884 39 890 q 33 862 35 878 q 31 814 32 846 q 31 724 31 782 q 30 617 31 664 q 29 563 29 569 q 29 516 29 556 q 30 422 29 476 q 31 304 31 367 q 33 187 32 242 q 36 94 35 132 q 38 50 38 56 q 81 -1 44 10 q 98 -5 89 -4 q 131 -7 107 -6 q 162 -6 143 -7 q 198 -5 181 -6 q 228 -3 215 -4 q 244 -1 242 -3 q 247 -7 247 -1 q 256 -32 247 -24 "},"{":{"ha":363,"x_min":28,"x_max":335,"o":"m 315 -29 q 328 -26 322 -29 q 335 -15 335 -24 q 328 3 335 -11 q 320 19 325 10 q 313 36 315 28 q 308 49 310 43 q 304 58 306 56 q 286 65 300 65 q 278 47 276 63 q 280 33 281 36 q 275 31 279 31 q 253 33 264 31 q 232 40 243 36 q 183 135 196 60 q 180 162 181 142 q 178 204 179 182 q 174 286 176 253 q 170 342 172 319 q 165 378 168 364 q 156 406 161 393 l 153 413 l 161 419 q 182 464 178 436 q 186 490 185 476 q 187 522 188 503 q 183 567 186 540 q 176 633 181 594 q 174 789 164 743 q 207 843 185 843 q 212 841 210 843 q 218 828 214 839 q 240 796 228 796 l 244 796 q 250 829 261 801 q 243 847 247 835 q 236 869 239 858 q 231 890 233 881 q 226 900 228 899 q 218 903 224 903 q 203 883 203 903 q 199 872 203 872 q 180 867 193 872 q 157 857 167 863 q 122 824 138 846 q 99 778 107 801 q 86 697 88 746 q 92 574 85 649 q 96 511 96 528 q 90 485 96 494 q 53 454 83 469 q 28 431 28 443 q 39 413 28 421 q 53 399 46 408 q 63 383 60 390 q 73 320 68 367 q 81 210 78 274 q 88 135 82 174 q 108 63 93 96 q 151 9 124 31 q 225 -12 179 -12 q 263 -10 250 -12 q 292 -3 276 -8 q 299 -11 294 0 q 307 -23 303 -18 q 315 -29 311 -28 "},"|":{"ha":158,"x_min":29,"x_max":131,"o":"m 47 -4 q 60 -6 50 -6 q 82 -6 69 -6 q 115 -2 108 -4 q 125 8 122 0 q 126 35 126 13 q 125 106 126 57 q 123 319 122 232 q 126 471 124 407 q 130 610 129 540 q 128 719 131 679 q 123 758 125 751 q 110 767 121 764 q 93 768 107 768 q 64 767 79 768 q 44 764 49 765 q 35 751 36 760 q 31 703 33 743 q 29 611 29 679 q 29 460 29 543 q 29 293 29 376 q 31 156 29 210 q 33 66 32 97 q 34 22 33 35 q 36 6 35 8 q 39 1 38 4 q 47 -4 44 -4 "},"}":{"ha":363,"x_min":28,"x_max":335,"o":"m 143 -44 q 158 -41 154 -44 q 161 -26 161 -37 q 165 -15 161 -15 q 184 -10 171 -15 q 207 1 197 -6 q 242 34 226 13 q 265 79 257 56 q 278 160 276 111 q 272 283 279 208 q 268 346 268 329 q 274 372 268 363 q 311 403 281 388 q 335 426 335 414 q 325 444 335 438 q 311 458 318 450 q 301 474 304 467 q 291 537 296 490 q 283 647 286 583 q 275 723 281 683 q 255 795 269 763 q 213 849 240 828 q 139 869 186 869 q 101 867 114 869 q 72 860 88 865 q 65 868 69 857 q 43 886 56 886 q 28 874 28 886 q 36 854 28 871 q 44 839 39 849 q 51 822 49 829 q 56 808 54 814 q 60 799 58 801 q 78 792 64 792 q 86 810 88 797 q 84 825 83 824 q 92 828 85 826 q 132 817 110 828 q 160 788 150 807 q 176 744 171 768 q 183 695 181 719 q 186 653 185 671 q 190 571 188 604 q 194 515 192 538 q 199 478 196 493 q 207 453 203 464 l 211 446 l 203 438 q 190 419 196 431 q 181 393 183 407 q 177 367 178 381 q 177 335 176 354 q 181 290 178 317 q 188 225 183 264 q 190 68 200 114 q 157 14 179 14 q 151 16 153 14 q 146 29 150 18 q 124 61 136 61 l 119 61 q 109 51 110 58 q 115 25 108 43 q 122 7 118 18 q 128 -14 125 -4 q 136 -39 133 -33 q 143 -44 139 -44 "},"~":{"ha":438,"x_min":28,"x_max":410,"o":"m 247 264 q 259 262 254 263 q 269 261 264 261 q 326 281 301 261 q 368 325 350 301 q 397 369 383 344 q 408 399 410 393 q 392 410 404 410 q 382 407 386 410 q 364 392 378 404 q 345 376 356 385 q 328 363 335 367 q 283 346 301 346 q 257 353 269 346 q 242 361 250 356 q 226 374 233 367 q 184 402 199 396 q 146 408 169 408 q 90 397 119 408 q 39 369 60 386 q 28 356 29 364 q 42 340 28 340 q 58 347 47 340 q 74 353 68 353 q 111 333 81 353 q 160 301 140 314 q 195 282 181 289 q 222 271 210 275 q 247 264 233 267 "},"`":{"ha":199,"x_min":24,"x_max":171,"o":"m 125 700 q 132 697 131 697 q 136 699 133 699 q 147 703 139 700 q 171 733 171 714 q 167 751 171 738 q 158 781 164 764 q 147 815 153 797 q 133 846 140 832 q 92 890 115 890 q 88 890 89 890 q 83 889 86 889 q 55 878 72 886 q 33 865 38 871 q 38 831 24 853 q 49 813 42 825 q 65 788 57 800 q 106 723 93 743 q 125 700 119 703 "},"":{"ha":544,"x_min":25,"x_max":518,"o":"m 274 -10 q 308 -14 286 -14 q 388 6 351 -14 q 451 57 424 26 l 469 75 l 482 63 q 501 50 494 50 q 511 56 506 50 q 514 72 518 61 q 500 90 511 76 q 476 117 489 103 q 450 141 463 131 q 433 151 438 151 q 425 147 429 151 q 421 133 418 140 q 438 111 424 126 l 446 101 l 435 88 q 413 65 424 76 q 390 47 401 54 q 380 42 383 43 q 365 42 376 42 q 319 60 339 42 q 286 103 300 78 q 264 157 272 129 q 251 206 256 185 q 247 230 250 215 q 242 258 244 244 q 238 282 239 271 q 236 296 236 293 l 236 300 l 288 301 q 333 302 326 301 q 344 307 340 303 q 344 331 356 318 l 339 335 l 285 335 l 232 333 l 233 374 q 234 403 233 390 q 236 415 235 415 l 242 415 q 317 411 261 415 q 331 410 325 411 q 339 410 336 410 q 350 414 346 410 q 349 438 364 425 q 334 443 343 442 q 285 447 325 444 q 254 449 267 449 q 240 451 242 450 q 241 463 239 453 q 247 489 243 474 q 254 520 250 504 q 263 547 258 536 q 277 587 268 564 q 299 632 286 610 q 328 672 313 654 q 361 697 343 690 q 368 698 364 697 q 378 699 372 699 q 410 696 393 699 l 415 696 q 425 689 415 696 l 432 681 l 424 669 q 414 650 414 657 q 416 638 411 643 q 428 632 421 632 q 433 633 432 632 q 446 647 438 633 q 457 663 450 653 q 471 682 464 672 q 487 707 485 700 q 482 719 489 714 q 474 724 478 724 q 460 717 467 724 q 454 710 458 714 l 451 707 q 443 713 451 704 q 394 740 422 729 q 340 750 367 750 q 231 699 282 750 q 151 565 179 649 q 139 521 144 543 q 128 472 133 499 l 125 453 l 103 453 q 58 450 75 451 q 36 444 40 449 q 30 435 31 442 q 35 424 29 428 q 44 421 38 421 q 81 421 50 421 l 122 422 l 121 417 q 120 402 121 415 q 117 371 119 389 l 115 328 l 93 326 q 46 323 56 324 q 33 318 36 322 q 33 300 25 310 q 38 296 36 297 q 47 294 40 294 q 61 294 53 294 q 83 296 69 294 l 117 297 l 118 276 q 130 196 121 242 q 158 108 139 150 q 205 33 176 65 q 274 -10 233 0 "},"":{"ha":625,"x_min":18,"x_max":603,"o":"m 388 -15 q 401 -17 389 -17 q 413 -17 407 -17 q 426 -15 419 -17 q 487 -8 458 -15 q 540 19 515 -1 l 553 28 l 561 21 q 581 11 575 11 q 586 13 585 11 q 593 35 603 19 q 584 43 592 38 q 567 56 576 49 q 547 69 556 63 q 533 79 538 76 q 517 89 525 89 q 504 79 508 89 q 515 56 503 69 l 522 47 l 515 43 q 470 22 493 26 q 419 18 447 18 q 394 19 406 18 q 375 21 382 19 q 353 26 369 22 q 318 36 336 31 q 281 47 300 42 q 250 54 261 51 l 225 60 l 235 78 q 272 308 281 172 q 269 351 269 347 q 275 356 269 356 q 303 360 286 357 q 331 367 319 364 q 353 397 368 381 q 340 404 349 404 q 324 400 335 404 q 292 392 308 394 q 269 389 276 389 q 264 390 264 389 q 263 402 264 392 q 258 428 261 413 q 245 565 249 504 q 247 657 242 625 q 265 717 253 693 q 293 746 278 742 q 308 743 297 747 q 322 733 318 739 l 328 728 l 318 719 q 307 706 310 711 q 321 689 304 689 l 324 689 q 335 694 328 689 q 367 722 343 700 q 388 745 385 738 q 383 760 390 753 q 374 764 379 764 q 358 757 369 764 l 349 750 l 343 756 q 271 779 315 779 q 217 765 240 779 q 176 727 193 750 q 150 676 160 704 q 135 621 140 647 q 130 540 129 593 q 136 431 131 488 q 138 412 138 419 q 139 403 139 404 q 131 401 139 401 q 111 400 122 401 q 76 397 89 399 q 51 388 64 394 q 32 354 18 371 q 42 350 36 350 q 57 356 46 350 q 78 366 67 364 q 114 368 90 368 l 143 368 q 144 355 143 367 q 148 326 146 343 q 151 289 150 308 q 153 253 153 269 q 153 179 156 208 q 140 124 150 150 q 116 80 132 100 q 68 35 100 60 q 49 18 53 22 q 46 6 46 14 q 58 -11 46 -11 q 69 -7 64 -11 q 176 29 118 29 q 231 23 200 29 q 310 4 263 17 q 388 -15 364 -12 "},"":{"ha":574,"x_min":13,"x_max":546,"o":"m 235 174 q 271 169 254 169 q 374 195 325 169 q 462 263 424 221 q 523 356 500 304 q 546 460 546 408 q 527 558 546 507 q 475 652 508 610 q 398 722 442 694 q 304 750 354 750 q 229 733 267 750 q 158 689 192 715 q 99 630 125 663 q 57 567 72 597 q 38 374 13 469 q 108 244 57 300 q 235 174 158 189 m 315 208 q 295 205 307 206 q 274 204 283 204 q 256 206 258 204 q 213 231 240 210 q 171 272 186 251 q 138 337 147 303 q 128 418 128 371 q 151 547 128 486 q 222 657 174 608 q 270 697 250 685 q 314 713 290 710 q 319 713 317 713 q 325 714 322 714 q 381 695 353 714 q 432 649 408 676 q 474 590 456 621 q 500 535 492 558 q 489 361 529 447 q 415 265 464 307 q 315 208 367 222 m 268 322 q 285 319 279 319 q 334 335 307 319 q 372 371 361 351 q 374 392 376 379 q 356 399 367 401 q 349 393 354 397 q 339 383 344 389 q 308 363 314 358 q 301 374 306 365 q 293 393 296 383 q 288 429 289 404 q 289 469 286 454 q 301 521 293 496 q 319 558 310 546 q 326 564 322 561 q 333 569 331 567 l 342 574 l 350 565 q 365 557 358 557 q 376 565 372 557 q 369 589 381 576 q 308 611 347 611 q 257 595 279 611 q 219 555 235 579 q 197 502 204 531 q 189 449 189 474 q 207 371 189 408 q 268 322 225 333 "},"":{"ha":494,"x_min":19,"x_max":467,"o":"m 328 561 q 347 556 339 556 q 399 579 378 556 q 407 629 417 601 q 356 665 396 665 q 338 663 344 665 q 324 653 332 661 q 306 605 304 635 q 328 561 308 575 m 457 -53 q 440 -47 453 -51 q 412 -37 426 -42 q 385 -30 397 -33 q 371 -26 374 -26 q 359 -35 363 -26 q 363 -51 356 -44 q 381 -60 368 -57 l 389 -64 l 393 -65 q 385 -88 396 -68 q 363 -119 374 -108 q 293 -153 340 -146 q 276 -154 288 -154 q 233 -143 251 -154 q 200 -115 214 -132 q 178 -75 186 -97 q 165 -32 169 -53 q 163 43 161 -1 q 172 124 164 88 q 237 244 188 194 q 349 326 286 294 q 369 339 360 333 q 381 347 378 344 q 390 367 389 356 q 390 422 392 379 q 390 460 390 443 q 389 479 389 476 q 371 494 385 494 q 364 493 367 494 q 356 483 357 490 q 357 451 354 475 q 358 424 357 440 q 358 397 358 408 l 357 372 l 346 367 q 299 349 332 358 q 134 247 208 317 q 36 82 60 178 q 38 -67 19 3 q 100 -168 54 -129 q 213 -215 146 -207 q 231 -217 218 -217 q 324 -193 278 -217 q 396 -129 369 -169 q 412 -102 403 -119 q 424 -78 421 -85 l 425 -74 l 439 -78 q 447 -80 444 -79 q 451 -81 449 -81 q 455 -80 454 -81 q 457 -79 456 -79 q 467 -66 467 -75 q 457 -53 467 -57 "},"":{"ha":426,"x_min":28,"x_max":400,"o":"m 397 267 q 274 400 385 379 l 261 403 l 274 415 q 309 467 297 439 q 324 533 321 494 q 324 573 325 553 q 318 608 322 593 q 250 698 301 675 q 136 721 199 721 q 114 719 128 721 q 86 715 100 717 q 62 710 72 713 q 49 707 51 708 q 41 697 42 704 q 46 683 40 689 q 51 681 49 682 q 57 681 53 681 l 65 681 l 78 682 l 79 675 q 81 635 81 671 q 79 548 81 599 q 76 440 78 497 q 72 336 75 382 q 69 249 71 288 q 66 178 67 211 q 65 115 65 144 q 64 53 64 85 q 63 -33 64 -32 q 49 -35 61 -35 q 33 -40 38 -35 q 28 -50 28 -43 q 36 -62 28 -60 q 51 -64 44 -64 q 72 -63 58 -64 q 104 -61 85 -62 q 133 -60 119 -60 q 160 -60 146 -60 l 182 -60 q 207 -60 197 -60 q 224 -61 217 -61 q 238 -60 236 -61 q 243 -56 240 -58 q 243 -36 251 -46 q 233 -30 240 -32 q 207 -26 225 -28 l 189 -25 l 189 85 l 194 86 q 204 88 197 88 q 218 90 211 89 q 304 114 268 99 q 376 174 351 133 q 397 267 400 214 m 199 406 l 200 426 q 201 476 200 436 q 203 565 201 517 l 204 682 l 214 678 q 261 648 244 667 q 286 600 278 629 q 290 580 289 593 q 290 552 290 567 q 288 524 289 538 q 285 503 288 511 q 217 414 268 444 l 203 407 l 199 406 m 358 218 q 319 160 347 181 q 232 128 290 139 q 213 124 222 125 q 199 121 204 122 l 189 119 l 190 149 q 192 191 190 160 q 194 254 193 222 q 197 316 196 286 q 199 356 197 346 l 200 376 l 221 376 q 338 333 301 372 q 362 281 356 314 q 358 218 368 249 "},"":{"ha":317,"x_min":32,"x_max":294,"o":"m 81 249 q 92 246 89 246 q 108 255 99 246 q 142 292 117 264 q 164 316 154 306 q 176 329 174 326 l 181 333 l 199 310 q 216 289 207 300 q 232 272 225 278 q 249 258 244 258 l 251 258 q 264 282 274 264 q 251 300 261 289 q 239 315 247 304 q 222 335 231 325 l 203 358 l 226 386 q 265 432 251 415 q 286 458 279 449 q 294 472 293 468 q 293 479 294 475 q 268 497 286 490 q 238 503 250 503 q 208 493 222 503 q 168 458 193 483 l 144 436 l 125 464 q 109 485 117 475 q 99 499 101 496 q 88 504 93 504 q 78 500 82 504 q 74 486 71 494 q 99 447 78 478 l 124 411 l 117 403 q 96 379 108 394 q 71 348 83 364 q 49 319 58 332 q 36 301 39 306 q 36 282 32 290 q 57 263 40 274 q 71 254 64 258 q 81 249 78 250 "},"":{"ha":339,"x_min":31,"x_max":314,"o":"m 153 463 q 168 463 160 463 q 183 465 176 463 q 199 476 190 468 q 210 490 207 483 q 213 520 217 503 q 197 547 208 538 q 188 552 192 551 q 174 553 185 553 q 153 550 158 551 q 142 542 149 549 q 124 510 128 529 q 128 479 121 492 q 153 463 136 467 m 313 396 q 308 411 313 407 l 303 417 l 232 417 q 169 416 201 417 q 109 415 136 415 q 63 413 82 414 q 42 410 44 411 q 31 392 31 406 q 42 357 32 367 q 49 352 46 354 q 62 349 53 350 q 89 348 71 349 q 138 346 107 347 l 186 346 q 240 347 218 346 q 274 349 263 347 q 308 367 299 351 q 313 378 311 374 q 313 396 314 383 m 189 315 q 174 319 181 319 q 137 300 154 319 q 115 265 119 281 q 122 238 113 250 q 147 224 132 226 q 185 231 167 224 q 213 257 203 238 q 215 291 221 274 q 189 315 208 308 "},"":{"ha":338,"x_min":24,"x_max":310,"o":"m 32 476 q 33 457 24 465 q 40 454 36 454 q 56 456 47 454 q 75 458 64 457 q 94 458 86 458 l 113 460 l 114 440 q 115 422 114 433 q 115 400 115 410 q 117 364 115 375 q 125 349 119 353 q 133 344 129 344 q 157 343 138 343 q 176 343 168 343 q 188 344 185 343 q 196 353 193 347 q 199 367 199 357 q 199 410 199 376 l 199 461 l 238 463 q 270 463 263 463 q 281 467 278 464 q 285 485 289 475 q 277 494 282 492 q 256 496 272 496 l 235 496 l 199 494 l 199 538 q 198 568 199 554 q 197 585 197 582 q 192 592 194 590 q 179 594 189 594 q 158 593 167 594 q 126 589 135 593 q 117 577 119 586 q 115 533 115 568 q 113 492 115 492 q 94 490 107 492 q 69 487 82 489 q 45 482 56 485 q 32 476 35 479 m 56 296 q 43 267 43 290 q 46 242 43 258 q 61 226 49 226 q 89 227 68 226 q 136 229 110 228 q 190 232 163 231 q 238 235 217 233 q 299 240 290 238 q 310 254 308 243 q 307 275 310 268 q 304 285 306 281 q 303 292 303 289 q 296 304 303 297 l 289 311 l 265 311 q 211 310 244 311 q 145 306 178 308 q 87 301 113 303 q 56 296 61 299 "},"":{"ha":350,"x_min":28,"x_max":322,"o":"m 40 460 q 82 435 46 456 q 161 394 118 415 q 241 355 204 372 q 285 338 278 338 q 312 360 301 338 q 311 400 322 382 q 284 427 306 413 q 237 456 263 442 q 187 481 211 469 q 150 497 163 492 q 132 506 136 503 q 124 508 128 507 q 131 515 122 510 q 153 529 135 518 q 193 556 171 540 q 235 581 217 569 q 256 594 253 592 q 265 614 272 601 q 253 622 264 622 q 246 621 249 622 q 210 601 242 619 q 140 559 178 582 q 71 517 103 536 q 36 496 39 499 q 29 478 28 489 q 40 460 31 467 m 307 303 q 296 310 304 306 q 242 309 279 310 q 164 306 204 308 q 90 301 124 304 q 46 294 56 299 q 36 283 39 292 q 35 265 33 275 q 46 239 38 243 q 57 236 49 236 q 86 237 64 236 q 137 239 108 238 q 195 241 165 240 q 246 243 225 242 q 286 245 269 244 q 306 246 303 246 q 315 251 311 246 q 321 261 319 256 q 317 283 322 268 q 307 303 311 297 "},"":{"ha":436,"x_min":28,"x_max":417,"o":"m 88 140 q 100 135 92 135 q 110 138 107 135 q 133 185 113 140 q 181 297 153 229 l 194 329 l 228 331 q 397 342 388 338 q 403 378 417 349 q 399 390 399 386 q 393 401 399 394 q 382 410 388 407 q 336 413 374 413 q 305 412 322 413 q 265 411 288 411 q 249 410 256 411 q 236 410 242 410 q 231 411 232 410 q 228 411 229 411 q 232 425 228 417 q 237 438 235 431 q 242 450 239 444 l 247 464 l 276 465 q 336 468 314 467 q 370 470 358 469 q 387 472 382 471 q 393 474 392 472 q 396 514 410 482 q 374 543 388 539 q 322 544 368 544 l 300 544 l 278 544 q 281 556 278 546 q 290 578 285 565 q 301 606 296 592 q 310 629 306 619 q 323 658 317 646 q 338 686 329 669 q 338 701 342 693 q 325 708 333 708 q 308 693 317 708 q 275 626 299 678 q 261 594 268 611 q 250 567 254 576 l 240 543 l 222 542 q 86 532 126 535 q 42 526 46 529 q 32 515 36 524 q 28 496 28 508 q 42 463 31 471 q 47 460 44 460 q 60 460 49 460 q 85 460 69 460 q 128 461 100 460 q 185 463 161 463 q 210 463 208 463 q 207 454 208 458 q 204 447 206 451 q 200 435 203 442 q 190 411 193 415 q 183 407 188 407 q 161 406 181 407 q 114 401 142 404 q 73 399 88 400 q 51 396 58 397 q 42 392 44 394 q 36 383 39 389 q 35 355 32 372 q 46 331 38 338 l 51 326 l 157 329 l 147 306 q 133 269 143 294 q 111 218 122 244 q 92 172 100 192 q 83 150 83 153 q 88 140 83 149 "},"":{"ha":358,"x_min":26,"x_max":331,"o":"m 290 285 q 237 284 275 285 q 157 281 199 283 q 81 276 115 279 q 40 269 47 274 q 29 240 26 265 q 40 214 32 218 q 51 213 42 213 q 145 215 99 213 q 239 219 192 217 q 280 222 263 221 q 300 222 297 222 q 315 238 313 222 q 311 259 317 244 q 301 278 306 274 q 290 285 297 285 m 318 475 q 269 503 307 483 q 190 544 232 524 q 114 581 149 565 q 74 597 79 597 q 46 574 56 597 q 46 535 36 551 q 76 506 54 521 q 122 478 97 492 q 171 454 147 465 q 208 438 194 443 q 227 430 219 433 q 235 425 235 426 q 228 418 235 425 q 206 404 224 415 q 164 379 188 393 q 124 353 142 364 q 103 340 106 343 q 93 321 88 332 q 99 314 97 314 q 106 311 104 311 q 117 315 111 311 q 154 337 122 318 q 223 377 186 356 q 290 418 260 399 q 322 439 321 438 q 329 457 331 446 q 318 475 328 468 "},"":{"ha":486,"x_min":28,"x_max":460,"o":"m 125 -4 q 163 -5 143 -4 q 194 -6 183 -6 q 220 -5 215 -6 q 228 -1 225 -4 q 231 18 236 8 q 211 28 225 28 l 203 28 l 204 35 q 215 78 207 47 q 232 133 224 110 l 242 167 l 293 168 q 337 169 329 168 q 347 172 344 169 q 346 196 360 185 q 338 199 343 199 q 304 200 332 200 q 276 201 289 200 q 260 201 263 201 l 254 203 l 263 224 q 266 233 265 229 q 268 240 267 238 l 271 247 q 291 247 282 247 q 311 246 300 247 q 333 243 325 243 q 346 243 342 243 q 356 244 354 243 q 365 256 364 247 q 358 271 365 265 q 347 274 357 272 q 324 278 336 276 q 299 281 311 279 q 283 282 288 282 l 292 307 q 308 354 296 318 q 333 432 319 390 q 360 511 349 479 q 378 567 371 543 q 392 608 386 590 q 406 644 399 626 q 424 692 421 685 q 433 700 428 700 l 438 700 q 453 704 449 700 q 457 720 460 711 q 443 732 454 729 q 382 731 413 732 q 321 726 351 729 q 294 724 300 725 q 286 721 289 724 q 285 700 274 711 q 299 696 292 696 l 306 696 q 308 694 307 694 q 303 681 308 693 q 292 649 299 668 q 232 471 271 592 q 223 445 226 456 q 218 435 219 435 q 215 442 217 438 q 213 448 214 444 q 210 456 213 451 q 172 554 194 500 q 121 665 149 608 l 101 707 l 111 708 l 128 708 q 138 710 132 707 q 146 717 144 713 q 129 740 153 736 q 109 739 124 740 q 78 735 94 738 q 49 731 63 733 q 32 725 36 728 q 28 715 28 722 q 32 706 29 708 q 38 702 35 703 q 53 701 42 701 l 68 703 l 82 675 q 113 608 96 646 q 145 531 129 571 q 175 453 161 492 q 199 386 189 415 q 198 374 200 382 q 186 338 196 365 q 176 307 181 319 q 171 292 171 294 q 162 290 169 290 q 129 289 154 289 l 111 289 q 84 287 90 289 q 76 279 78 285 q 81 263 72 268 q 94 260 83 261 q 121 260 106 260 q 147 258 136 258 q 158 257 158 258 q 156 249 157 253 q 153 241 154 246 q 150 229 153 236 l 142 200 l 108 200 q 74 197 81 199 q 67 185 67 194 q 73 172 67 175 q 103 169 79 169 l 124 169 q 132 168 128 168 q 131 161 132 167 q 126 147 129 156 q 120 125 124 139 q 113 97 117 111 q 107 72 110 83 q 103 54 104 60 q 100 43 101 49 q 99 35 99 38 l 96 26 l 86 28 q 72 27 75 28 q 65 24 68 26 q 62 9 58 17 q 76 -1 65 1 q 94 -2 79 -1 q 125 -4 108 -3 "},"":{"ha":436,"x_min":28,"x_max":411,"o":"m 250 -78 q 261 -82 254 -82 q 272 -76 268 -82 q 276 -69 275 -72 q 276 -53 276 -65 q 274 -1 274 -8 q 276 8 274 7 q 300 24 283 13 q 324 40 314 32 q 353 65 333 47 l 358 71 l 368 63 q 389 49 382 49 q 399 53 393 49 q 404 64 404 58 q 401 72 404 68 q 383 90 397 76 l 349 125 q 336 138 339 136 q 328 140 333 140 q 317 133 319 139 q 325 107 310 125 l 335 96 l 321 82 q 278 48 299 61 q 247 35 257 35 q 208 67 233 35 q 184 110 193 88 q 169 164 175 132 q 166 270 163 207 q 186 429 169 333 q 219 575 201 524 q 264 657 236 626 q 300 676 283 676 q 324 668 307 676 q 349 653 342 660 l 354 646 l 346 633 q 347 599 329 606 q 353 597 350 597 q 375 621 361 597 q 387 641 381 631 q 397 658 393 651 q 403 689 411 681 q 394 692 400 692 q 374 678 383 692 l 371 672 l 364 679 q 340 694 357 686 q 307 708 322 703 l 292 714 l 292 803 l 288 807 q 276 813 282 813 q 268 808 272 813 q 265 802 265 806 q 263 786 264 799 q 262 765 263 778 q 261 743 261 753 l 261 718 l 247 718 q 158 675 196 718 q 94 573 121 632 q 53 451 68 514 q 33 350 39 389 q 31 314 32 335 q 28 272 29 293 q 29 231 28 250 q 32 199 31 211 q 92 65 44 129 q 144 13 118 31 q 213 -4 169 -4 l 242 -4 l 243 -11 q 243 -19 243 -14 q 244 -29 243 -24 q 250 -78 244 -72 "},"":{"ha":217,"x_min":28,"x_max":189,"o":"m 76 558 q 89 557 81 557 q 131 577 114 557 q 147 621 147 597 q 148 638 149 633 q 143 651 147 642 q 113 678 131 672 q 97 681 107 681 q 83 678 89 681 q 50 652 61 671 q 39 613 39 633 q 47 578 39 593 q 76 558 56 563 m 181 -89 q 174 -24 178 -61 q 168 39 171 13 q 165 98 167 65 q 160 150 163 131 q 156 204 158 174 q 152 268 154 235 q 149 335 150 301 q 146 400 147 369 q 144 439 144 425 q 142 460 143 453 q 138 469 140 467 q 132 475 136 472 q 118 478 129 478 q 96 479 107 479 q 68 476 82 479 q 53 465 56 472 q 49 425 51 457 q 47 390 49 410 q 44 354 46 369 q 39 278 42 318 q 34 185 36 238 q 31 60 32 132 q 28 -112 29 -12 q 28 -174 28 -161 q 31 -192 28 -186 q 46 -204 33 -200 q 72 -204 53 -204 q 114 -204 92 -204 q 155 -203 136 -204 q 176 -201 174 -203 q 186 -194 183 -199 q 188 -187 188 -192 q 188 -173 189 -183 q 186 -142 188 -162 q 181 -89 185 -122 "},"":{"ha":332,"x_min":28,"x_max":306,"o":"m 61 851 q 56 849 58 850 q 50 847 53 849 q 28 810 28 846 q 35 777 28 792 q 58 754 42 763 q 78 750 65 750 q 94 753 86 750 q 122 779 110 760 q 127 803 126 790 q 122 825 128 815 q 81 857 108 857 q 71 856 75 857 q 61 851 67 854 m 257 854 q 224 841 238 854 q 208 806 210 828 q 218 771 207 786 q 246 756 232 758 q 250 755 249 756 q 254 754 251 754 q 286 768 272 754 q 303 801 300 782 q 291 838 306 821 q 257 854 276 854 "},"":{"ha":614,"x_min":28,"x_max":589,"o":"m 549 -37 q 563 -39 557 -39 q 571 -39 568 -39 q 581 -36 578 -39 q 585 -20 589 -29 q 569 -8 581 -11 q 560 3 563 -7 q 556 21 556 11 q 544 82 551 42 q 527 169 536 122 q 508 260 518 215 q 492 335 499 306 q 478 389 485 361 q 468 432 472 417 q 460 470 465 447 q 450 513 454 493 q 440 552 444 532 q 432 583 435 572 q 424 618 431 594 q 411 667 418 642 q 399 713 404 692 q 390 740 393 735 q 390 744 390 743 q 389 747 389 746 l 388 750 q 396 753 388 753 q 413 769 413 754 q 407 782 413 778 l 401 786 l 353 785 q 290 783 314 783 q 251 782 267 782 q 232 767 232 782 q 243 753 232 756 q 243 742 246 750 q 235 713 242 738 q 218 657 228 689 q 160 450 189 556 q 108 255 132 344 q 67 103 83 165 q 49 24 51 40 q 46 10 47 13 q 42 7 44 8 q 28 -7 28 4 q 40 -21 28 -21 l 74 -21 q 109 -22 85 -21 q 154 -22 133 -22 q 182 -24 172 -24 q 199 -24 192 -24 q 213 -21 210 -24 q 217 -1 221 -14 q 194 8 214 8 q 185 11 185 8 q 193 50 185 14 q 212 128 201 86 q 231 205 222 169 q 240 240 240 240 q 263 242 240 242 q 315 244 285 243 q 376 244 344 244 q 425 244 407 244 l 443 244 q 450 214 444 243 q 463 149 456 185 q 476 82 471 114 q 483 43 482 50 q 489 17 486 28 q 492 3 492 6 l 493 -3 l 476 -4 q 453 -19 453 -4 q 459 -30 453 -28 q 497 -35 465 -32 q 527 -37 513 -36 q 549 -37 542 -37 m 325 276 q 291 274 308 275 q 267 274 274 274 q 258 273 261 274 q 251 272 254 272 q 249 274 249 272 l 247 274 q 253 298 247 275 q 266 350 258 321 q 281 408 274 379 q 292 449 288 436 q 310 513 300 478 q 329 579 321 549 q 350 651 339 615 q 358 626 351 651 q 383 518 364 601 q 394 467 388 499 q 407 410 401 435 q 426 322 418 357 q 435 283 433 288 l 436 278 l 400 278 q 363 278 385 278 q 325 276 342 278 m 222 907 q 217 905 219 906 q 211 903 214 904 q 189 865 189 901 q 196 833 189 847 q 219 810 203 818 q 239 806 226 806 q 256 808 247 806 q 283 835 271 815 q 288 858 288 846 q 283 881 289 871 q 242 913 269 913 q 232 911 236 913 q 222 907 228 910 m 418 910 q 385 897 399 910 q 369 861 371 883 q 379 826 368 842 q 407 811 393 814 q 411 810 410 811 q 415 810 413 810 q 447 824 433 810 q 464 857 461 838 q 452 893 467 876 q 418 910 438 910 "},"":{"ha":581,"x_min":26,"x_max":558,"o":"m 460 13 q 489 12 472 13 q 517 11 506 11 q 540 13 536 13 q 547 17 544 14 q 547 39 558 28 q 541 44 544 43 q 518 46 538 44 q 499 47 503 46 q 494 49 494 47 q 499 78 496 53 q 503 138 501 103 q 508 213 506 174 q 511 286 510 253 q 513 358 513 326 q 510 418 513 389 q 503 477 508 447 q 490 544 499 507 q 467 631 482 586 q 426 712 451 675 q 365 772 401 749 q 278 794 328 794 q 206 784 242 794 q 142 753 171 774 l 131 744 l 125 753 q 110 769 113 767 q 103 771 107 771 q 90 765 94 771 q 88 751 85 758 q 99 735 89 749 q 122 708 110 722 q 146 683 135 694 q 158 671 157 671 q 160 670 160 671 q 164 669 161 669 q 176 676 171 669 q 178 690 181 682 q 172 698 176 693 q 164 708 168 703 q 153 722 154 719 q 156 726 153 724 q 202 750 169 740 q 256 760 235 760 q 278 759 272 760 q 290 754 283 758 q 336 701 322 740 q 356 629 350 661 q 361 584 358 610 q 363 557 364 558 q 357 561 360 558 q 342 568 353 563 q 291 590 314 583 q 236 597 268 597 q 167 579 199 596 q 112 538 136 563 q 71 480 88 513 q 43 414 54 447 q 28 322 31 371 q 36 231 26 272 q 60 163 43 197 q 101 101 76 129 q 157 55 125 72 q 226 38 189 38 q 290 53 258 38 q 350 85 322 68 q 364 94 356 89 q 369 97 367 96 l 369 71 l 371 44 l 358 43 q 336 33 340 42 q 342 15 333 21 q 357 15 344 15 q 386 14 369 14 q 424 14 403 14 q 460 13 446 14 m 314 103 l 294 93 q 271 104 286 94 q 246 125 256 114 q 199 199 215 158 q 175 283 182 239 q 171 369 168 317 q 185 461 174 422 q 222 531 196 501 q 274 560 247 560 q 316 547 289 560 q 358 521 343 533 l 367 513 l 368 326 l 368 142 l 350 128 q 332 114 343 121 q 314 103 321 107 m 182 929 q 176 927 179 928 q 171 925 174 926 q 149 888 149 924 q 156 855 149 869 q 179 832 163 840 q 199 828 186 828 q 215 831 207 828 q 243 857 231 838 q 248 881 247 868 q 243 903 249 893 q 201 935 229 935 q 192 933 196 935 q 182 929 188 932 m 378 932 q 344 919 358 932 q 329 883 331 906 q 339 849 328 864 q 367 833 353 836 q 371 833 369 833 q 375 832 372 832 q 407 846 393 832 q 424 879 421 860 q 412 915 426 899 q 378 932 397 932 "},"":{"ha":592,"x_min":28,"x_max":564,"o":"m 256 -51 q 271 -53 260 -53 q 352 -37 318 -53 q 421 11 386 -21 q 488 97 461 49 q 532 199 515 146 q 556 308 549 253 q 564 418 564 364 q 561 484 563 463 q 553 542 560 506 q 526 637 544 586 q 478 730 508 688 q 407 801 449 772 q 313 829 365 829 q 215 799 264 829 q 125 711 165 769 q 32 449 53 607 q 29 410 31 435 q 28 358 28 385 q 29 308 28 332 q 32 269 31 283 q 54 171 39 224 q 97 72 69 118 q 163 -9 124 25 q 256 -51 203 -43 m 332 -7 q 303 -14 314 -14 q 292 -11 297 -14 q 223 78 251 11 q 182 250 194 146 q 179 294 181 267 q 178 353 178 322 q 179 411 178 383 q 182 456 181 439 q 223 646 194 567 q 290 761 251 725 q 342 786 318 786 q 371 779 358 786 q 445 717 415 758 q 493 623 475 675 q 519 517 511 571 q 526 417 526 463 q 516 299 526 363 q 483 174 506 235 q 422 65 460 114 q 332 -7 385 15 m 208 950 q 203 948 206 949 q 197 946 200 947 q 175 908 175 944 q 182 876 175 890 q 206 853 189 861 q 225 849 213 849 q 242 851 233 849 q 269 878 257 858 q 274 901 274 889 q 269 924 275 914 q 228 956 256 956 q 218 954 222 956 q 208 950 214 953 m 404 953 q 371 940 385 953 q 356 904 357 926 q 365 869 354 885 q 393 854 379 857 q 397 853 396 854 q 401 853 399 853 q 433 867 419 853 q 450 900 447 881 q 438 936 453 919 q 404 953 424 953 "},"":{"ha":636,"x_min":29,"x_max":610,"o":"m 264 -8 l 263 -8 q 281 -11 271 -11 q 306 -11 292 -11 q 435 33 379 -8 q 528 136 490 75 q 585 269 565 197 q 607 404 606 340 q 595 541 610 476 q 553 657 581 606 q 485 744 525 708 q 394 796 444 781 q 373 801 382 800 q 336 801 364 801 q 300 801 308 801 q 279 796 292 800 q 179 742 222 781 q 105 652 136 703 q 56 544 74 601 q 31 433 38 488 q 29 406 29 424 q 29 369 29 388 q 29 333 29 350 q 31 306 29 315 q 110 92 47 176 q 264 -8 172 8 m 365 36 q 336 31 349 31 q 281 53 303 31 q 241 108 257 76 q 215 175 225 140 q 201 246 206 210 q 194 315 197 282 q 207 492 190 403 q 257 647 224 581 q 371 760 307 746 q 395 758 386 760 q 419 747 404 756 q 517 650 478 717 q 569 492 556 583 q 572 424 572 467 q 569 356 572 382 q 548 261 564 310 q 507 169 532 213 q 447 90 482 125 q 365 36 411 54 m 228 922 q 222 920 225 921 q 217 918 219 919 q 194 881 194 917 q 201 848 194 863 q 225 825 208 833 q 244 821 232 821 q 261 824 253 821 q 289 850 276 831 q 294 874 293 861 q 289 896 294 886 q 247 928 275 928 q 238 926 242 928 q 228 922 233 925 m 424 925 q 390 912 404 925 q 375 876 376 899 q 385 842 374 857 q 413 826 399 829 q 417 826 415 826 q 421 825 418 825 q 453 839 439 825 q 469 872 467 853 q 458 908 472 892 q 424 925 443 925 "},"":{"ha":592,"x_min":24,"x_max":565,"o":"m 242 -36 q 258 -38 249 -37 q 278 -39 267 -39 q 422 38 372 -39 q 465 128 449 75 q 490 238 481 181 q 503 352 500 296 q 508 451 507 408 q 513 565 511 525 q 514 628 514 606 q 514 666 514 651 q 513 701 514 681 q 512 722 513 713 q 511 739 511 732 q 511 756 511 749 q 533 757 511 757 q 553 759 549 758 q 560 763 557 760 q 563 778 565 769 q 550 789 560 786 q 524 788 544 789 q 483 786 504 788 q 443 783 461 785 q 422 779 425 782 q 413 765 413 776 q 418 757 413 763 l 424 753 l 476 756 l 479 715 q 481 667 481 690 q 480 611 481 643 q 478 535 479 579 q 474 426 476 492 q 453 224 468 304 q 411 86 439 144 q 387 46 401 65 q 364 24 372 26 q 347 29 361 22 q 318 44 332 36 q 253 126 279 69 q 215 257 226 182 q 213 294 214 269 q 211 349 211 319 q 211 410 211 379 q 213 464 211 440 q 219 580 215 515 q 228 696 224 644 q 230 719 229 708 q 231 740 231 731 q 232 758 232 750 q 249 761 232 761 q 273 766 267 763 q 279 779 279 769 q 274 792 279 786 l 268 796 l 225 794 q 168 794 199 794 q 111 792 138 793 q 66 790 85 790 q 44 789 47 789 q 32 785 40 789 q 33 765 24 776 q 53 761 36 761 l 69 761 l 68 742 q 67 715 68 735 q 63 674 65 694 q 52 525 54 590 q 51 382 50 460 q 55 309 53 340 q 60 252 57 278 q 68 204 64 226 q 79 158 72 182 q 144 28 103 79 q 242 -36 186 -22 m 224 926 q 218 924 221 925 q 213 922 215 924 q 190 885 190 921 q 197 852 190 867 q 221 829 204 838 q 240 825 228 825 q 257 828 249 825 q 285 854 272 835 q 290 878 289 865 q 285 900 290 890 q 243 932 271 932 q 233 931 238 932 q 224 926 229 929 m 419 929 q 386 916 400 929 q 371 881 372 903 q 381 846 369 861 q 408 831 394 833 q 413 830 411 831 q 417 829 414 829 q 449 843 435 829 q 465 876 463 857 q 453 913 468 896 q 419 929 439 929 "},"":{"ha":578,"x_min":25,"x_max":556,"o":"m 235 -8 q 258 -11 246 -11 q 379 60 324 -12 q 471 263 435 132 l 479 292 l 478 163 l 478 33 l 458 32 q 437 29 443 32 q 428 19 431 26 q 435 0 425 7 q 456 -3 440 -3 q 476 -2 464 -3 q 507 0 489 -1 q 538 3 531 1 q 549 13 546 6 q 525 35 556 35 l 513 35 l 514 390 q 515 528 515 464 q 515 642 515 593 q 517 746 517 697 q 528 749 517 746 q 547 765 547 751 q 542 777 547 772 q 529 782 536 782 q 508 781 525 782 q 472 779 490 781 q 438 776 453 778 q 419 775 422 775 q 406 764 410 772 q 410 747 403 756 q 417 744 413 744 q 439 743 421 743 l 464 743 l 465 738 q 470 692 468 725 q 475 626 472 658 q 469 442 479 533 q 436 271 458 350 q 383 132 414 192 q 315 44 353 72 q 303 36 307 38 q 292 35 299 35 q 256 67 271 35 q 229 139 240 99 q 212 217 218 179 q 204 269 206 256 q 192 483 192 368 q 204 707 192 599 q 210 740 208 738 q 226 744 211 743 q 254 757 251 746 q 253 769 257 764 q 243 778 250 775 q 200 778 231 778 q 137 776 169 778 q 76 774 104 775 q 40 771 49 774 q 31 761 32 767 q 33 742 25 751 q 40 738 36 739 q 57 738 44 738 q 73 738 69 738 q 75 735 76 738 q 68 701 75 729 q 50 501 51 601 q 61 311 49 400 q 100 151 74 222 q 165 36 126 79 q 198 8 179 21 q 235 -8 217 -4 m 201 911 q 196 909 199 910 q 190 907 193 908 q 168 869 168 906 q 175 837 168 851 q 199 814 182 822 q 218 810 206 810 q 235 813 226 810 q 263 839 250 819 q 267 863 267 850 q 263 885 268 875 q 221 917 249 917 q 211 915 215 917 q 201 911 207 914 m 397 914 q 364 901 378 914 q 349 865 350 888 q 358 831 347 846 q 386 815 372 818 q 390 815 389 815 q 394 814 392 814 q 426 828 413 814 q 443 861 440 842 q 431 897 446 881 q 397 914 417 914 "},"@":{"ha":1007,"x_min":92,"x_max":879,"o":"m 390 -89 q 404 -90 397 -90 q 418 -90 411 -90 q 451 -89 435 -90 q 482 -85 468 -87 q 536 -66 514 -79 q 581 -29 558 -53 q 603 -3 597 -12 q 608 15 608 6 q 583 40 608 40 q 572 36 576 40 q 547 13 567 32 q 524 -9 535 0 q 508 -21 514 -18 q 467 -33 490 -29 q 417 -37 443 -37 q 330 -25 374 -37 q 256 13 286 -12 q 224 70 235 32 q 209 154 213 108 q 208 247 206 200 q 217 328 211 293 q 234 403 221 354 q 268 502 247 451 q 318 595 289 553 q 382 651 347 638 q 449 673 417 665 q 518 681 482 681 q 651 655 588 681 q 764 579 715 629 q 819 480 807 533 q 814 358 832 426 q 798 310 810 339 q 769 253 786 281 q 731 208 753 226 q 683 189 708 189 q 635 222 651 189 q 626 249 629 233 q 620 288 622 264 q 617 349 618 313 q 617 436 617 385 l 618 544 l 611 550 q 577 568 601 561 q 525 575 553 575 q 453 560 488 575 q 388 517 418 544 q 335 451 357 489 q 300 367 313 413 q 294 335 294 346 q 292 297 293 324 q 293 263 292 275 q 297 242 294 251 q 341 170 310 196 q 413 144 372 144 q 456 152 433 144 q 499 173 478 160 q 537 203 519 186 q 564 236 554 219 l 569 244 q 578 224 569 244 q 618 159 589 182 q 683 136 647 136 q 738 150 713 136 q 782 183 763 164 q 853 303 828 232 q 876 446 879 375 q 840 570 874 517 q 752 660 806 624 q 633 715 699 697 q 504 733 568 733 q 342 691 417 733 q 211 582 267 649 q 124 433 156 515 q 92 268 92 350 q 103 170 92 219 q 135 81 114 121 q 239 -39 175 0 q 390 -89 303 -78 m 451 207 q 421 199 438 199 q 403 207 408 199 q 391 285 388 235 q 406 375 394 335 q 418 415 413 397 q 433 448 424 432 q 458 482 443 464 q 499 522 474 500 q 515 528 504 528 q 527 527 521 528 q 540 526 533 526 q 559 524 551 525 q 568 524 567 524 q 569 485 572 519 q 567 444 568 469 q 565 399 567 418 q 563 353 564 363 q 554 328 561 343 q 531 285 546 308 q 504 249 517 261 q 478 225 493 236 q 451 207 464 214 "}}}
